<svg width="16" height="16" viewBox="0 0 16 16" fill="none" xmlns="http://www.w3.org/2000/svg">
<path d="M13.2649 6.265L8.26492 11.265C8.19461 11.3352 8.0993 11.3747 7.99992 11.3747C7.90055 11.3747 7.80524 11.3352 7.73492 11.265L2.73492 6.265C2.66868 6.19391 2.63262 6.09989 2.63434 6.00274C2.63605 5.90559 2.67541 5.8129 2.74411 5.74419C2.81282 5.67548 2.90551 5.63613 3.00266 5.63441C3.09981 5.6327 3.19384 5.66876 3.26492 5.735L7.99992 10.4694L12.7349 5.735C12.806 5.66876 12.9 5.6327 12.9972 5.63441C13.0943 5.63613 13.187 5.67548 13.2557 5.74419C13.3244 5.8129 13.3638 5.90559 13.3655 6.00274C13.3672 6.09989 13.3312 6.19391 13.2649 6.265Z" fill="#D81B27"/>
</svg>
