<svg width="24" height="24" viewBox="0 0 24 24" fill="none" xmlns="http://www.w3.org/2000/svg">
<path d="M12 2.4375C10.1087 2.4375 8.25991 2.99833 6.68736 4.04907C5.11482 5.09981 3.88917 6.59327 3.16541 8.34059C2.44164 10.0879 2.25227 12.0106 2.62125 13.8656C2.99022 15.7205 3.90096 17.4244 5.2383 18.7617C6.57564 20.099 8.27951 21.0098 10.1345 21.3788C11.9894 21.7477 13.9121 21.5584 15.6594 20.8346C17.4067 20.1108 18.9002 18.8852 19.9509 17.3126C21.0017 15.7401 21.5625 13.8913 21.5625 12C21.5595 9.46478 20.5511 7.03425 18.7584 5.24158C16.9658 3.44891 14.5352 2.44048 12 2.4375ZM12 20.4375C10.3312 20.4375 8.69992 19.9426 7.31238 19.0155C5.92484 18.0884 4.84338 16.7706 4.20477 15.2289C3.56616 13.6871 3.39907 11.9906 3.72463 10.3539C4.05019 8.71721 4.85379 7.21379 6.03379 6.03379C7.2138 4.85378 8.71722 4.05019 10.3539 3.72462C11.9906 3.39906 13.6871 3.56615 15.2289 4.20477C16.7706 4.84338 18.0884 5.92484 19.0155 7.31238C19.9427 8.69992 20.4375 10.3312 20.4375 12C20.435 14.237 19.5453 16.3817 17.9635 17.9635C16.3817 19.5453 14.237 20.435 12 20.4375ZM14.6475 11.6025C14.7528 11.708 14.812 11.8509 14.812 12C14.812 12.1491 14.7528 12.292 14.6475 12.3975L10.8975 16.1475C10.7909 16.2469 10.6498 16.301 10.5041 16.2984C10.3584 16.2958 10.2193 16.2368 10.1163 16.1337C10.0132 16.0307 9.95419 15.8916 9.95162 15.7459C9.94905 15.6002 10.0031 15.4591 10.1025 15.3525L13.4541 12L10.1025 8.6475C10.0031 8.54087 9.94905 8.39983 9.95162 8.25411C9.95419 8.10838 10.0132 7.96934 10.1163 7.86628C10.2193 7.76322 10.3584 7.70419 10.5041 7.70162C10.6498 7.69905 10.7909 7.75314 10.8975 7.8525L14.6475 11.6025Z" fill="#D81B27"/>
</svg>
