<svg width="384" height="100" viewBox="0 0 384 100" fill="none" xmlns="http://www.w3.org/2000/svg">
<g filter="url(#filter0_d_79_693)">
<rect x="20" y="20" width="344" height="60" rx="16" fill="#06C755" shape-rendering="crispEdges"/>
<rect x="20.5" y="20.5" width="343" height="59" rx="15.5" stroke="#06C755" shape-rendering="crispEdges"/>
<path d="M50.048 49.072C50.7627 50.9707 51.8933 52.5227 53.44 53.728C54.9867 54.9333 56.9547 55.7547 59.344 56.192C59.2587 56.2773 59.1627 56.3787 59.056 56.496C58.96 56.624 58.8693 56.7573 58.784 56.896C58.6987 57.0347 58.624 57.1573 58.56 57.264C56.9493 56.9227 55.5253 56.4053 54.288 55.712C53.0507 55.0187 51.9947 54.144 51.12 53.088C50.256 52.032 49.552 50.8 49.008 49.392L50.048 49.072ZM55.952 48.512H56.192L56.416 48.464L57.232 48.832C56.9013 50.0373 56.4373 51.104 55.84 52.032C55.2533 52.9493 54.5653 53.7493 53.776 54.432C52.9973 55.104 52.144 55.6747 51.216 56.144C50.288 56.6133 49.312 56.992 48.288 57.28C48.2133 57.1307 48.1067 56.9493 47.968 56.736C47.84 56.5333 47.7173 56.3733 47.6 56.256C48.5493 56.0213 49.4613 55.696 50.336 55.28C51.2213 54.8533 52.032 54.3307 52.768 53.712C53.5147 53.0933 54.16 52.3733 54.704 51.552C55.248 50.7307 55.664 49.7973 55.952 48.752V48.512ZM45.104 45.232H58.944V46.384H45.104V45.232ZM49.408 48.512H56.096V49.68H49.072L49.408 48.512ZM49.392 42.544H50.624C50.6133 42.8107 50.592 43.1947 50.56 43.696C50.528 44.1973 50.4747 44.7893 50.4 45.472C50.3253 46.144 50.2133 46.8747 50.064 47.664C49.9253 48.4427 49.7387 49.248 49.504 50.08C49.2693 50.9013 48.9707 51.7173 48.608 52.528C48.256 53.328 47.8347 54.0907 47.344 54.816C46.8533 55.5413 46.2773 56.1867 45.616 56.752C45.4987 56.6027 45.344 56.4533 45.152 56.304C44.96 56.1653 44.7627 56.0427 44.56 55.936C45.2213 55.4133 45.792 54.8107 46.272 54.128C46.7627 53.4347 47.1787 52.704 47.52 51.936C47.872 51.1573 48.1547 50.3733 48.368 49.584C48.592 48.7947 48.7733 48.0267 48.912 47.28C49.0507 46.5227 49.152 45.8293 49.216 45.2C49.28 44.56 49.3227 44.0107 49.344 43.552C49.3653 43.0933 49.3813 42.7573 49.392 42.544ZM66.608 43.648C66.5547 43.8187 66.5013 44.032 66.448 44.288C66.3947 44.544 66.352 44.752 66.32 44.912C66.2453 45.296 66.1547 45.744 66.048 46.256C65.952 46.7573 65.84 47.2853 65.712 47.84C65.5947 48.3947 65.4613 48.9387 65.312 49.472C65.1733 50.0373 65.0027 50.656 64.8 51.328C64.5973 51.9893 64.384 52.656 64.16 53.328C63.936 54 63.7067 54.6347 63.472 55.232C63.2373 55.8293 63.0187 56.352 62.816 56.8L61.408 56.32C61.6533 55.904 61.8987 55.408 62.144 54.832C62.4 54.256 62.6453 53.6373 62.88 52.976C63.1253 52.3147 63.3493 51.6587 63.552 51.008C63.7653 50.3467 63.9467 49.7333 64.096 49.168C64.192 48.7947 64.288 48.4 64.384 47.984C64.48 47.568 64.5707 47.1627 64.656 46.768C64.752 46.3627 64.8267 45.9947 64.88 45.664C64.944 45.3227 64.992 45.0453 65.024 44.832C65.056 44.608 65.0773 44.3733 65.088 44.128C65.0987 43.8827 65.0933 43.68 65.072 43.52L66.608 43.648ZM63.056 46.304C63.6533 46.304 64.2933 46.2773 64.976 46.224C65.6693 46.16 66.3733 46.0693 67.088 45.952C67.8027 45.8347 68.4907 45.696 69.152 45.536V46.784C68.4907 46.9333 67.7973 47.0613 67.072 47.168C66.3467 47.2747 65.632 47.36 64.928 47.424C64.2347 47.4773 63.6053 47.504 63.04 47.504C62.688 47.504 62.3627 47.4987 62.064 47.488C61.7653 47.4667 61.472 47.4507 61.184 47.44L61.136 46.192C61.52 46.2347 61.8613 46.2667 62.16 46.288C62.4693 46.2987 62.768 46.304 63.056 46.304ZM68.112 48.512C68.5387 48.4693 69.0027 48.4373 69.504 48.416C70.016 48.384 70.528 48.368 71.04 48.368C71.5093 48.368 71.9787 48.3787 72.448 48.4C72.928 48.4213 73.3813 48.4587 73.808 48.512L73.776 49.728C73.3707 49.6747 72.9387 49.632 72.48 49.6C72.0213 49.5573 71.5573 49.536 71.088 49.536C70.576 49.536 70.0747 49.552 69.584 49.584C69.0933 49.6053 68.6027 49.648 68.112 49.712V48.512ZM68.448 52.4C68.384 52.6667 68.3307 52.9227 68.288 53.168C68.2453 53.4027 68.224 53.6267 68.224 53.84C68.224 54.032 68.256 54.2187 68.32 54.4C68.3947 54.5707 68.528 54.7253 68.72 54.864C68.912 55.0027 69.184 55.1147 69.536 55.2C69.8987 55.2853 70.3627 55.328 70.928 55.328C71.44 55.328 71.9627 55.3013 72.496 55.248C73.04 55.1947 73.5573 55.1147 74.048 55.008L74 56.304C73.5733 56.368 73.0987 56.4213 72.576 56.464C72.0533 56.5173 71.4987 56.544 70.912 56.544C69.6533 56.544 68.688 56.3467 68.016 55.952C67.344 55.5573 67.008 54.9653 67.008 54.176C67.008 53.8667 67.0293 53.5627 67.072 53.264C67.1147 52.9547 67.1733 52.6293 67.248 52.288L68.448 52.4ZM72.08 44.128C72.2187 44.3093 72.368 44.5333 72.528 44.8C72.688 45.0667 72.8427 45.3333 72.992 45.6C73.152 45.8667 73.2853 46.112 73.392 46.336L72.528 46.72C72.432 46.496 72.304 46.2507 72.144 45.984C71.9947 45.7173 71.84 45.4507 71.68 45.184C71.5307 44.9173 71.3813 44.688 71.232 44.496L72.08 44.128ZM73.84 43.472C73.9893 43.6747 74.1493 43.9093 74.32 44.176C74.4907 44.4427 74.6507 44.7093 74.8 44.976C74.96 45.2427 75.0933 45.4773 75.2 45.68L74.336 46.064C74.1653 45.7013 73.9573 45.3173 73.712 44.912C73.4667 44.496 73.232 44.1387 73.008 43.84L73.84 43.472ZM82.768 43.472C82.704 43.6853 82.6507 43.9093 82.608 44.144C82.5653 44.3787 82.5227 44.6027 82.48 44.816C82.4267 45.072 82.3627 45.392 82.288 45.776C82.224 46.1493 82.1387 46.56 82.032 47.008C81.936 47.4453 81.8347 47.888 81.728 48.336C81.6213 48.784 81.5093 49.2107 81.392 49.616C81.2853 50.0107 81.1733 50.3573 81.056 50.656C81.76 50.1653 82.4747 49.8187 83.2 49.616C83.936 49.4027 84.7253 49.296 85.568 49.296C86.4213 49.296 87.1467 49.4293 87.744 49.696C88.3413 49.9627 88.8 50.336 89.12 50.816C89.44 51.2853 89.6 51.8347 89.6 52.464C89.6 53.296 89.3973 54 88.992 54.576C88.5867 55.152 88.016 55.6053 87.28 55.936C86.544 56.2667 85.6693 56.4747 84.656 56.56C83.6533 56.656 82.5387 56.64 81.312 56.512L80.992 55.248C81.92 55.376 82.816 55.4293 83.68 55.408C84.5547 55.376 85.3333 55.2587 86.016 55.056C86.7093 54.8427 87.2587 54.528 87.664 54.112C88.08 53.696 88.288 53.1573 88.288 52.496C88.288 51.8987 88.0427 51.3973 87.552 50.992C87.072 50.576 86.3627 50.368 85.424 50.368C84.4747 50.368 83.584 50.5333 82.752 50.864C81.92 51.184 81.2373 51.664 80.704 52.304C80.608 52.4213 80.5173 52.5387 80.432 52.656C80.3573 52.7627 80.2827 52.8907 80.208 53.04L79.008 52.608C79.3173 52.0107 79.6 51.344 79.856 50.608C80.112 49.8613 80.336 49.1093 80.528 48.352C80.72 47.5947 80.88 46.9013 81.008 46.272C81.136 45.632 81.2267 45.1147 81.28 44.72C81.312 44.464 81.3333 44.2347 81.344 44.032C81.3547 43.8293 81.3547 43.616 81.344 43.392L82.768 43.472ZM77.792 45.504C78.2187 45.5787 78.7093 45.6427 79.264 45.696C79.8293 45.7493 80.352 45.776 80.832 45.776C81.344 45.776 81.9147 45.76 82.544 45.728C83.1733 45.696 83.8293 45.648 84.512 45.584C85.1947 45.52 85.8773 45.44 86.56 45.344C87.2533 45.2373 87.9147 45.1147 88.544 44.976L88.56 46.208C87.9947 46.304 87.376 46.3947 86.704 46.48C86.0427 46.5653 85.3653 46.64 84.672 46.704C83.9787 46.768 83.3013 46.8213 82.64 46.864C81.9893 46.896 81.392 46.912 80.848 46.912C80.304 46.912 79.776 46.896 79.264 46.864C78.7627 46.832 78.2773 46.7947 77.808 46.752L77.792 45.504ZM96.192 48.88V54.544H95.024V50H92.784V48.88H96.192ZM96.192 54.016C96.576 54.6027 97.1093 55.04 97.792 55.328C98.4747 55.616 99.28 55.776 100.208 55.808C100.645 55.8293 101.173 55.8453 101.792 55.856C102.421 55.856 103.077 55.8507 103.76 55.84C104.453 55.8293 105.12 55.8133 105.76 55.792C106.4 55.7707 106.96 55.744 107.44 55.712C107.387 55.7973 107.333 55.9147 107.28 56.064C107.227 56.2133 107.179 56.3627 107.136 56.512C107.093 56.672 107.061 56.8107 107.04 56.928C106.603 56.9493 106.085 56.9653 105.488 56.976C104.891 56.9867 104.272 56.992 103.632 56.992C102.992 57.0027 102.368 57.0027 101.76 56.992C101.163 56.992 100.645 56.9867 100.208 56.976C99.1627 56.9333 98.2667 56.7627 97.52 56.464C96.784 56.1653 96.16 55.696 95.648 55.056C95.264 55.3973 94.8693 55.7387 94.464 56.08C94.0587 56.432 93.6373 56.7893 93.2 57.152L92.576 55.92C92.96 55.664 93.3707 55.3707 93.808 55.04C94.256 54.6987 94.688 54.3573 95.104 54.016H96.192ZM92.96 43.664L93.84 42.944C94.192 43.168 94.5493 43.4293 94.912 43.728C95.2747 44.016 95.6053 44.3093 95.904 44.608C96.2133 44.9067 96.464 45.184 96.656 45.44L95.696 46.24C95.536 45.984 95.3013 45.7013 94.992 45.392C94.6933 45.0827 94.3627 44.7787 94 44.48C93.648 44.1707 93.3013 43.8987 92.96 43.664ZM98.56 44.224H105.648V48.432H98.56V47.408H104.48V45.248H98.56V44.224ZM101.168 42.512L102.544 42.736C102.384 43.12 102.219 43.504 102.048 43.888C101.888 44.272 101.744 44.6027 101.616 44.88L100.496 44.64C100.624 44.3307 100.752 43.9787 100.88 43.584C101.008 43.1787 101.104 42.8213 101.168 42.512ZM97.968 44.224H99.152V54.496H97.968V44.224ZM98.608 49.952H106.288V54.496H98.608V53.472H105.12V50.976H98.608V49.952ZM117.68 54.704H122.032V55.856H117.68V54.704ZM108.848 45.584H115.008V46.768H108.848V45.584ZM117.152 44.544H122.608V56.912H121.408V45.712H118.304V57.04H117.152V44.544ZM114.688 45.584H115.84C115.84 45.584 115.84 45.6267 115.84 45.712C115.84 45.7867 115.84 45.8773 115.84 45.984C115.84 46.08 115.84 46.1547 115.84 46.208C115.808 47.9893 115.776 49.488 115.744 50.704C115.712 51.92 115.669 52.9173 115.616 53.696C115.563 54.464 115.493 55.056 115.408 55.472C115.333 55.888 115.232 56.1813 115.104 56.352C114.955 56.5547 114.8 56.6987 114.64 56.784C114.48 56.88 114.283 56.944 114.048 56.976C113.824 57.008 113.536 57.0187 113.184 57.008C112.843 57.008 112.496 56.9973 112.144 56.976C112.133 56.7947 112.096 56.592 112.032 56.368C111.979 56.144 111.899 55.9467 111.792 55.776C112.165 55.808 112.512 55.8293 112.832 55.84C113.152 55.84 113.381 55.84 113.52 55.84C113.637 55.8507 113.739 55.84 113.824 55.808C113.909 55.7653 113.989 55.6907 114.064 55.584C114.149 55.4667 114.224 55.216 114.288 54.832C114.352 54.4373 114.411 53.8667 114.464 53.12C114.517 52.3733 114.56 51.408 114.592 50.224C114.624 49.0293 114.656 47.5787 114.688 45.872V45.584ZM111.12 42.768H112.304C112.293 44.2507 112.267 45.696 112.224 47.104C112.181 48.512 112.069 49.8453 111.888 51.104C111.717 52.3627 111.429 53.52 111.024 54.576C110.629 55.6213 110.08 56.528 109.376 57.296C109.312 57.2 109.227 57.0987 109.12 56.992C109.013 56.896 108.901 56.8 108.784 56.704C108.667 56.608 108.555 56.528 108.448 56.464C108.981 55.9093 109.413 55.2587 109.744 54.512C110.085 53.7653 110.352 52.9493 110.544 52.064C110.736 51.168 110.869 50.2187 110.944 49.216C111.029 48.2027 111.077 47.1573 111.088 46.08C111.109 44.992 111.12 43.888 111.12 42.768ZM129.44 43.536C129.397 43.8027 129.365 44.0747 129.344 44.352C129.323 44.6187 129.307 44.8853 129.296 45.152C129.275 45.6 129.253 46.1547 129.232 46.816C129.211 47.4773 129.189 48.1813 129.168 48.928C129.147 49.664 129.131 50.4 129.12 51.136C129.109 51.872 129.104 52.5333 129.104 53.12C129.104 53.7067 129.216 54.176 129.44 54.528C129.664 54.88 129.973 55.1307 130.368 55.28C130.763 55.4293 131.216 55.504 131.728 55.504C132.453 55.504 133.109 55.4133 133.696 55.232C134.283 55.04 134.805 54.7893 135.264 54.48C135.723 54.16 136.128 53.8027 136.48 53.408C136.843 53.0133 137.168 52.608 137.456 52.192L138.368 53.28C138.091 53.664 137.749 54.064 137.344 54.48C136.949 54.8853 136.48 55.264 135.936 55.616C135.392 55.968 134.763 56.256 134.048 56.48C133.344 56.704 132.555 56.816 131.68 56.816C130.923 56.816 130.251 56.6987 129.664 56.464C129.077 56.2293 128.619 55.8507 128.288 55.328C127.957 54.8053 127.792 54.112 127.792 53.248C127.792 52.768 127.797 52.24 127.808 51.664C127.819 51.0773 127.835 50.4747 127.856 49.856C127.877 49.2373 127.893 48.6347 127.904 48.048C127.915 47.4507 127.925 46.9013 127.936 46.4C127.947 45.8987 127.952 45.4827 127.952 45.152C127.952 44.8533 127.941 44.5653 127.92 44.288C127.899 44.0107 127.867 43.7547 127.824 43.52L129.44 43.536ZM140.876 45.376C141.185 45.3653 141.462 45.3547 141.708 45.344C141.953 45.3227 142.15 45.3067 142.3 45.296C142.556 45.264 142.924 45.2267 143.404 45.184C143.894 45.1307 144.454 45.0773 145.084 45.024C145.713 44.96 146.39 44.896 147.116 44.832C147.841 44.768 148.572 44.704 149.308 44.64C149.894 44.5867 150.449 44.544 150.972 44.512C151.494 44.4693 151.98 44.4373 152.428 44.416C152.876 44.384 153.276 44.3627 153.628 44.352V45.632C153.329 45.6213 152.988 45.6213 152.604 45.632C152.22 45.6427 151.841 45.6693 151.468 45.712C151.094 45.744 150.769 45.8027 150.492 45.888C149.926 46.0693 149.414 46.3467 148.956 46.72C148.508 47.0827 148.124 47.504 147.804 47.984C147.484 48.4533 147.238 48.9493 147.068 49.472C146.908 49.984 146.828 50.4747 146.828 50.944C146.828 51.5733 146.934 52.1227 147.148 52.592C147.361 53.0507 147.649 53.44 148.012 53.76C148.385 54.08 148.806 54.3413 149.276 54.544C149.756 54.7467 150.257 54.896 150.78 54.992C151.302 55.088 151.825 55.1467 152.348 55.168L151.884 56.496C151.297 56.4747 150.7 56.3893 150.092 56.24C149.494 56.1013 148.924 55.8987 148.38 55.632C147.836 55.3547 147.35 55.008 146.924 54.592C146.497 54.176 146.161 53.6907 145.916 53.136C145.67 52.5813 145.548 51.9467 145.548 51.232C145.548 50.4 145.692 49.632 145.98 48.928C146.278 48.2133 146.657 47.5893 147.116 47.056C147.574 46.5227 148.049 46.112 148.54 45.824C148.198 45.8667 147.777 45.9147 147.276 45.968C146.774 46.0213 146.23 46.08 145.644 46.144C145.068 46.1973 144.492 46.2613 143.916 46.336C143.34 46.4107 142.796 46.4853 142.284 46.56C141.782 46.624 141.361 46.6933 141.02 46.768L140.876 45.376ZM162.54 44.288H170.108V45.408H162.54V44.288ZM161.596 47.424H170.844V48.56H161.596V47.424ZM161.868 50.464H170.764V51.6H161.868V50.464ZM165.692 42.544H166.876V48.032H165.692V42.544ZM167.692 48.384H168.876V55.792C168.876 56.1547 168.828 56.432 168.732 56.624C168.646 56.816 168.47 56.9653 168.204 57.072C167.958 57.1573 167.617 57.2107 167.18 57.232C166.753 57.264 166.23 57.28 165.612 57.28C165.59 57.0987 165.542 56.8907 165.468 56.656C165.404 56.432 165.324 56.24 165.228 56.08C165.718 56.0907 166.161 56.096 166.556 56.096C166.961 56.096 167.228 56.0907 167.356 56.08C167.484 56.08 167.569 56.0587 167.612 56.016C167.665 55.9733 167.692 55.8987 167.692 55.792V48.384ZM162.7 52.608L163.612 52.064C163.889 52.3093 164.156 52.5813 164.412 52.88C164.678 53.1787 164.924 53.4827 165.148 53.792C165.372 54.0907 165.548 54.3627 165.676 54.608L164.7 55.232C164.582 54.9867 164.417 54.7093 164.204 54.4C163.99 54.0907 163.75 53.7813 163.484 53.472C163.228 53.152 162.966 52.864 162.7 52.608ZM156.076 51.264C156.588 51.1253 157.164 50.9653 157.804 50.784C158.454 50.6027 159.142 50.4053 159.868 50.192C160.604 49.968 161.329 49.7493 162.044 49.536L162.204 50.592C161.201 50.912 160.188 51.2373 159.164 51.568C158.14 51.888 157.217 52.1707 156.396 52.416L156.076 51.264ZM159.068 42.576H160.188V57.28H159.068V42.576ZM157.084 43.424L158.124 43.6C158.049 44.304 157.953 45.0027 157.836 45.696C157.718 46.3893 157.58 47.0453 157.42 47.664C157.27 48.2827 157.094 48.832 156.892 49.312C156.828 49.2587 156.737 49.2 156.62 49.136C156.513 49.0613 156.401 48.992 156.284 48.928C156.166 48.8533 156.065 48.8 155.98 48.768C156.182 48.3093 156.353 47.792 156.492 47.216C156.63 46.64 156.748 46.0267 156.844 45.376C156.95 44.7253 157.03 44.0747 157.084 43.424ZM157.196 45.808H161.836V46.96H157.004L157.196 45.808ZM181.02 54.56L181.852 53.776C182.428 54.0427 183.004 54.3307 183.58 54.64C184.156 54.9493 184.7 55.2587 185.212 55.568C185.734 55.8667 186.182 56.1493 186.556 56.416L185.5 57.216C185.148 56.96 184.726 56.6773 184.236 56.368C183.756 56.0693 183.238 55.7653 182.684 55.456C182.14 55.136 181.585 54.8373 181.02 54.56ZM172.14 52.384H186.876V53.52H172.14V52.384ZM174.38 48.304H184.7V49.424H174.38V48.304ZM177.196 42.528H178.332V52.912H177.196V42.528ZM180.684 42.512H181.82V52.928H180.684V42.512ZM173.756 44.48H185.404V52.832H184.204V45.616H174.924V52.832H173.756V44.48ZM176.94 53.792L178.076 54.496C177.67 54.8373 177.19 55.184 176.636 55.536C176.081 55.8773 175.505 56.1973 174.908 56.496C174.321 56.8053 173.756 57.072 173.212 57.296C173.105 57.168 172.961 57.0187 172.78 56.848C172.609 56.6773 172.449 56.5333 172.3 56.416C172.854 56.2133 173.425 55.9627 174.012 55.664C174.609 55.3653 175.164 55.056 175.676 54.736C176.198 54.4053 176.62 54.0907 176.94 53.792ZM194.348 51.728H200.732V52.64H194.348V51.728ZM192.86 43.808H202.364V44.736H192.86V43.808ZM193.244 45.76H201.964V46.64H193.244V45.76ZM192.38 47.744H202.844V48.672H192.38V47.744ZM194.364 53.856H200.78V54.768H194.364V53.856ZM193.532 49.6H200.716V50.528H194.652V57.264H193.532V49.6ZM200.444 49.6H201.58V55.936C201.58 56.2347 201.537 56.4693 201.452 56.64C201.377 56.8107 201.228 56.9387 201.004 57.024C200.78 57.12 200.481 57.1733 200.108 57.184C199.734 57.2053 199.265 57.216 198.7 57.216C198.678 57.0667 198.63 56.8907 198.556 56.688C198.492 56.496 198.422 56.3253 198.348 56.176C198.753 56.1867 199.126 56.192 199.468 56.192C199.82 56.2027 200.049 56.2027 200.156 56.192C200.348 56.1813 200.444 56.0907 200.444 55.92V49.6ZM196.956 42.56H198.14V48.032H196.956V42.56ZM189.948 42.56H191.036V57.264H189.948V42.56ZM188.684 45.648L189.58 45.76C189.558 46.176 189.516 46.6453 189.452 47.168C189.398 47.68 189.324 48.192 189.228 48.704C189.132 49.216 189.02 49.6747 188.892 50.08L187.948 49.76C188.076 49.3973 188.188 48.976 188.284 48.496C188.38 48.016 188.46 47.5253 188.524 47.024C188.598 46.5227 188.652 46.064 188.684 45.648ZM191.18 45.216L191.98 44.896C192.161 45.2587 192.337 45.6587 192.508 46.096C192.678 46.5227 192.801 46.88 192.876 47.168L192.028 47.584C191.953 47.2747 191.836 46.896 191.676 46.448C191.516 46 191.35 45.5893 191.18 45.216ZM212.412 48.736H217.66V49.728H212.412V48.736ZM211.82 43.296H217.532V44.384H212.924V57.296H211.82V43.296ZM216.956 43.296H218.076V46.384C218.076 46.6827 218.033 46.9173 217.948 47.088C217.873 47.2587 217.713 47.392 217.468 47.488C217.222 47.5733 216.892 47.6267 216.476 47.648C216.07 47.6587 215.553 47.664 214.924 47.664C214.902 47.504 214.854 47.328 214.78 47.136C214.716 46.9333 214.641 46.7573 214.556 46.608C214.897 46.6187 215.206 46.6293 215.484 46.64C215.772 46.64 216.017 46.64 216.22 46.64C216.422 46.64 216.561 46.6347 216.636 46.624C216.774 46.6133 216.86 46.592 216.892 46.56C216.934 46.528 216.956 46.4693 216.956 46.384V43.296ZM213.98 49.392C214.268 50.3947 214.657 51.3493 215.148 52.256C215.638 53.152 216.209 53.952 216.86 54.656C217.521 55.36 218.257 55.9093 219.068 56.304C218.929 56.4107 218.78 56.56 218.62 56.752C218.46 56.9547 218.332 57.1307 218.236 57.28C217.414 56.8107 216.668 56.192 215.996 55.424C215.334 54.656 214.753 53.776 214.252 52.784C213.761 51.792 213.356 50.7467 213.036 49.648L213.98 49.392ZM217.292 48.736H217.5L217.708 48.688L218.46 48.96C218.246 50.112 217.926 51.216 217.5 52.272C217.084 53.328 216.556 54.288 215.916 55.152C215.286 56.0053 214.545 56.7253 213.692 57.312C213.596 57.1733 213.468 57.024 213.308 56.864C213.158 56.7147 213.014 56.592 212.876 56.496C213.686 55.9627 214.39 55.3013 214.988 54.512C215.585 53.712 216.076 52.8373 216.46 51.888C216.854 50.9387 217.132 49.9787 217.292 49.008V48.736ZM204.748 44.208H210.684V45.232H204.748V44.208ZM204.572 52.944H210.892V53.984H204.572V52.944ZM204.188 46.848H211.308V47.888H204.188V46.848ZM204.412 50.16H211.1V51.2H204.412V50.16ZM207.212 42.576H208.332V47.216H207.212V42.576ZM207.212 50.608H208.332V57.248H207.212V50.608ZM209.372 47.824L210.412 48.08C210.252 48.464 210.092 48.8533 209.932 49.248C209.782 49.632 209.628 49.9627 209.468 50.24L208.588 49.984C208.673 49.7813 208.764 49.552 208.86 49.296C208.966 49.04 209.062 48.784 209.148 48.528C209.244 48.2613 209.318 48.0267 209.372 47.824ZM205.292 48.08L206.204 47.84C206.396 48.1813 206.561 48.5547 206.7 48.96C206.838 49.3653 206.924 49.7067 206.956 49.984L205.996 50.272C205.964 49.984 205.878 49.6373 205.74 49.232C205.612 48.816 205.462 48.432 205.292 48.08ZM226.876 43.344C226.812 43.664 226.726 44.0427 226.62 44.48C226.524 44.9067 226.364 45.392 226.14 45.936C225.948 46.416 225.708 46.912 225.42 47.424C225.142 47.936 224.844 48.4 224.524 48.816C224.726 48.688 224.956 48.5813 225.212 48.496C225.468 48.4 225.729 48.3307 225.996 48.288C226.273 48.2453 226.524 48.224 226.748 48.224C227.366 48.224 227.889 48.4 228.316 48.752C228.742 49.0933 228.956 49.5947 228.956 50.256C228.956 50.4587 228.956 50.72 228.956 51.04C228.956 51.3493 228.956 51.68 228.956 52.032C228.966 52.3733 228.977 52.7093 228.988 53.04C228.998 53.3707 229.004 53.6587 229.004 53.904H227.772C227.782 53.6907 227.793 53.44 227.804 53.152C227.814 52.864 227.82 52.56 227.82 52.24C227.83 51.92 227.83 51.616 227.82 51.328C227.82 51.04 227.82 50.7947 227.82 50.592C227.82 50.1227 227.676 49.7813 227.388 49.568C227.11 49.344 226.758 49.232 226.332 49.232C225.83 49.232 225.334 49.344 224.844 49.568C224.364 49.7813 223.942 50.0587 223.58 50.4C223.345 50.624 223.11 50.88 222.876 51.168C222.652 51.4453 222.401 51.744 222.124 52.064L221.036 51.264C221.804 50.5173 222.444 49.8187 222.956 49.168C223.468 48.5173 223.884 47.9147 224.204 47.36C224.524 46.7947 224.774 46.288 224.956 45.84C225.126 45.392 225.265 44.944 225.372 44.496C225.478 44.0373 225.542 43.616 225.564 43.232L226.876 43.344ZM221.404 45.072C221.83 45.1253 222.294 45.168 222.796 45.2C223.297 45.232 223.734 45.248 224.108 45.248C224.822 45.248 225.59 45.232 226.412 45.2C227.233 45.1573 228.06 45.0987 228.892 45.024C229.734 44.9493 230.534 44.8427 231.292 44.704L231.276 45.888C230.721 45.984 230.129 46.064 229.5 46.128C228.87 46.1813 228.23 46.2293 227.58 46.272C226.929 46.304 226.3 46.3307 225.692 46.352C225.094 46.3627 224.54 46.368 224.028 46.368C223.804 46.368 223.542 46.368 223.244 46.368C222.956 46.3573 222.652 46.3467 222.332 46.336C222.012 46.3147 221.702 46.2933 221.404 46.272V45.072ZM233.628 48.944C233.489 48.976 233.334 49.024 233.164 49.088C233.004 49.1413 232.838 49.2 232.668 49.264C232.508 49.328 232.353 49.392 232.204 49.456C231.649 49.6693 231.004 49.9307 230.268 50.24C229.532 50.5493 228.78 50.9067 228.012 51.312C227.478 51.5787 227.009 51.8613 226.604 52.16C226.198 52.448 225.878 52.752 225.644 53.072C225.409 53.3813 225.292 53.7227 225.292 54.096C225.292 54.4053 225.361 54.656 225.5 54.848C225.649 55.04 225.857 55.1893 226.124 55.296C226.39 55.392 226.694 55.456 227.036 55.488C227.388 55.52 227.772 55.536 228.188 55.536C228.806 55.536 229.51 55.504 230.3 55.44C231.1 55.3653 231.852 55.2693 232.556 55.152L232.524 56.432C232.118 56.4853 231.66 56.5333 231.148 56.576C230.646 56.6187 230.134 56.6507 229.612 56.672C229.1 56.704 228.609 56.72 228.14 56.72C227.382 56.72 226.689 56.6507 226.06 56.512C225.441 56.3733 224.945 56.128 224.572 55.776C224.198 55.424 224.012 54.9227 224.012 54.272C224.012 53.792 224.124 53.3547 224.348 52.96C224.572 52.5547 224.87 52.1867 225.244 51.856C225.628 51.5253 226.049 51.2213 226.508 50.944C226.966 50.656 227.436 50.3947 227.916 50.16C228.428 49.8827 228.908 49.6427 229.356 49.44C229.814 49.2373 230.246 49.0507 230.652 48.88C231.057 48.7093 231.436 48.5387 231.788 48.368C232.022 48.2613 232.246 48.16 232.46 48.064C232.673 47.968 232.886 47.8613 233.1 47.744L233.628 48.944ZM236.668 47.184H250.38V50.448H249.196V48.24H237.804V50.448H236.668V47.184ZM238.62 50.048H247.564V51.168H238.62V50.048ZM248.636 42.496L249.468 43.472C248.668 43.632 247.772 43.7813 246.78 43.92C245.788 44.0587 244.742 44.1813 243.644 44.288C242.556 44.384 241.452 44.4693 240.332 44.544C239.222 44.6187 238.145 44.6773 237.1 44.72C237.089 44.56 237.052 44.384 236.988 44.192C236.934 43.9893 236.881 43.8187 236.828 43.68C237.862 43.6373 238.924 43.5787 240.012 43.504C241.11 43.4293 242.188 43.344 243.244 43.248C244.31 43.152 245.302 43.04 246.22 42.912C247.137 42.784 247.942 42.6453 248.636 42.496ZM238.172 45.056L239.212 44.752C239.446 45.072 239.67 45.4347 239.884 45.84C240.097 46.2453 240.246 46.5867 240.332 46.864L239.244 47.232C239.158 46.9333 239.009 46.5813 238.796 46.176C238.593 45.76 238.385 45.3867 238.172 45.056ZM242.428 44.704L243.5 44.464C243.692 44.8373 243.868 45.2427 244.028 45.68C244.198 46.1067 244.305 46.48 244.348 46.8L243.228 47.088C243.174 46.7787 243.073 46.4 242.924 45.952C242.774 45.4933 242.609 45.0773 242.428 44.704ZM247.884 44.432L249.116 44.8C248.924 45.1413 248.716 45.4933 248.492 45.856C248.278 46.208 248.06 46.5493 247.836 46.88C247.612 47.2107 247.404 47.504 247.212 47.76L246.252 47.424C246.433 47.1573 246.625 46.8533 246.828 46.512C247.03 46.16 247.228 45.8027 247.42 45.44C247.612 45.0667 247.766 44.7307 247.884 44.432ZM247.132 50.048H247.388L247.612 50L248.412 50.512C247.921 51.5253 247.281 52.4107 246.492 53.168C245.713 53.9253 244.822 54.5707 243.82 55.104C242.817 55.6267 241.74 56.0587 240.588 56.4C239.446 56.752 238.262 57.0293 237.036 57.232C236.993 57.136 236.929 57.0187 236.844 56.88C236.769 56.7413 236.684 56.608 236.588 56.48C236.502 56.352 236.422 56.2453 236.348 56.16C237.542 55.9893 238.694 55.7547 239.804 55.456C240.924 55.1467 241.958 54.7573 242.908 54.288C243.857 53.8187 244.694 53.2533 245.42 52.592C246.145 51.92 246.716 51.1413 247.132 50.256V50.048ZM240.172 50.8C240.79 51.7813 241.612 52.6347 242.636 53.36C243.67 54.0747 244.865 54.6613 246.22 55.12C247.585 55.5787 249.073 55.9093 250.684 56.112C250.598 56.1973 250.508 56.304 250.412 56.432C250.326 56.5707 250.241 56.7093 250.156 56.848C250.07 56.9867 250.001 57.1147 249.948 57.232C248.326 56.9867 246.828 56.608 245.452 56.096C244.076 55.584 242.849 54.9227 241.772 54.112C240.705 53.3013 239.825 52.3413 239.132 51.232L240.172 50.8ZM263.692 43.52C263.67 43.6587 263.654 43.808 263.644 43.968C263.644 44.1173 263.644 44.2827 263.644 44.464C263.633 44.5813 263.628 44.7733 263.628 45.04C263.638 45.3067 263.644 45.6107 263.644 45.952C263.654 46.2827 263.66 46.624 263.66 46.976C263.67 47.328 263.676 47.6533 263.676 47.952C263.676 48.24 263.676 48.4747 263.676 48.656C263.676 49.5733 263.654 50.4267 263.612 51.216C263.58 52.0053 263.462 52.7413 263.26 53.424C263.057 54.1067 262.721 54.7413 262.252 55.328C261.793 55.904 261.137 56.4427 260.284 56.944L259.116 56.032C259.372 55.9253 259.644 55.7813 259.932 55.6C260.23 55.4187 260.476 55.232 260.668 55.04C261.094 54.6667 261.43 54.2667 261.676 53.84C261.921 53.4133 262.097 52.944 262.204 52.432C262.321 51.92 262.396 51.3547 262.428 50.736C262.46 50.1173 262.476 49.424 262.476 48.656C262.476 48.4 262.47 48.0747 262.46 47.68C262.449 47.2747 262.438 46.8587 262.428 46.432C262.417 45.9947 262.406 45.6 262.396 45.248C262.385 44.896 262.369 44.64 262.348 44.48C262.337 44.2987 262.316 44.128 262.284 43.968C262.252 43.7973 262.225 43.648 262.204 43.52H263.692ZM257.852 46.832C258.086 46.864 258.348 46.896 258.636 46.928C258.924 46.96 259.222 46.9813 259.532 46.992C259.852 47.0027 260.15 47.008 260.428 47.008C261.089 47.008 261.766 46.992 262.46 46.96C263.164 46.928 263.841 46.8747 264.492 46.8C265.153 46.7253 265.745 46.6293 266.268 46.512V47.824C265.756 47.8987 265.174 47.968 264.524 48.032C263.884 48.096 263.212 48.144 262.508 48.176C261.814 48.1973 261.126 48.208 260.444 48.208C260.188 48.208 259.9 48.2027 259.58 48.192C259.27 48.1813 258.961 48.1707 258.652 48.16C258.353 48.1493 258.086 48.1333 257.852 48.112V46.832ZM255.596 43.76C255.553 43.9093 255.505 44.0853 255.452 44.288C255.409 44.48 255.366 44.6507 255.324 44.8C255.196 45.376 255.073 46.016 254.956 46.72C254.838 47.424 254.748 48.1547 254.684 48.912C254.62 49.6693 254.598 50.416 254.62 51.152C254.641 51.888 254.726 52.5867 254.876 53.248C254.993 52.9067 255.126 52.512 255.276 52.064C255.436 51.616 255.59 51.1947 255.74 50.8L256.428 51.216C256.3 51.5787 256.166 51.9893 256.028 52.448C255.889 52.896 255.761 53.328 255.644 53.744C255.526 54.1493 255.441 54.4853 255.388 54.752C255.356 54.8693 255.329 54.9973 255.308 55.136C255.297 55.2747 255.297 55.3867 255.308 55.472C255.318 55.5573 255.324 55.648 255.324 55.744C255.334 55.84 255.345 55.9307 255.356 56.016L254.268 56.144C254.161 55.824 254.038 55.392 253.9 54.848C253.772 54.304 253.66 53.7067 253.564 53.056C253.468 52.3947 253.42 51.7333 253.42 51.072C253.42 50.1973 253.457 49.36 253.532 48.56C253.617 47.76 253.708 47.024 253.804 46.352C253.9 45.68 253.974 45.1253 254.028 44.688C254.06 44.496 254.081 44.304 254.092 44.112C254.102 43.92 254.108 43.7547 254.108 43.616L255.596 43.76ZM275.692 44.768H281.612V45.936H275.692V44.768ZM268.284 43.552H276.092V44.688H268.284V43.552ZM270.156 46.816H274.3V47.904H270.156V46.816ZM270.156 50.144H274.3V51.232H270.156V50.144ZM281.244 44.768H281.468L281.676 44.72L282.444 44.928C282.188 47.0613 281.756 48.912 281.148 50.48C280.54 52.0373 279.782 53.36 278.876 54.448C277.98 55.5253 276.956 56.3947 275.804 57.056C275.708 56.9067 275.585 56.7307 275.436 56.528C275.286 56.336 275.148 56.1813 275.02 56.064C276.076 55.52 277.03 54.7413 277.884 53.728C278.737 52.7147 279.452 51.4827 280.028 50.032C280.614 48.5813 281.02 46.9173 281.244 45.04V44.768ZM277.148 46C277.436 47.536 277.841 48.9653 278.364 50.288C278.886 51.6107 279.537 52.7733 280.316 53.776C281.105 54.768 282.049 55.5467 283.148 56.112C283.062 56.1867 282.966 56.2827 282.86 56.4C282.753 56.5173 282.652 56.6347 282.556 56.752C282.46 56.88 282.38 56.9973 282.316 57.104C281.153 56.4533 280.161 55.6 279.34 54.544C278.529 53.4773 277.852 52.2453 277.308 50.848C276.774 49.44 276.337 47.8987 275.996 46.224L277.148 46ZM269.516 43.984H270.668V54.368H269.516V43.984ZM273.804 43.984H274.972V57.248H273.804V43.984ZM267.948 54.032C268.481 53.9573 269.089 53.8773 269.772 53.792C270.454 53.696 271.18 53.5947 271.948 53.488C272.726 53.3707 273.505 53.2533 274.284 53.136L274.348 54.24C273.249 54.4213 272.15 54.6027 271.052 54.784C269.964 54.9547 269.004 55.0987 268.172 55.216L267.948 54.032ZM287.324 44.208C287.505 44.2293 287.697 44.2453 287.9 44.256C288.113 44.2667 288.3 44.272 288.46 44.272C288.62 44.272 288.881 44.2667 289.244 44.256C289.617 44.2453 290.033 44.2347 290.492 44.224C290.961 44.2027 291.425 44.1867 291.884 44.176C292.353 44.1547 292.769 44.1333 293.132 44.112C293.505 44.0907 293.777 44.0747 293.948 44.064C294.182 44.0427 294.364 44.0213 294.492 44C294.62 43.9787 294.726 43.9573 294.812 43.936L295.548 44.864C295.409 44.96 295.26 45.0613 295.1 45.168C294.95 45.2747 294.801 45.392 294.652 45.52C294.449 45.6693 294.177 45.888 293.836 46.176C293.494 46.4533 293.116 46.768 292.7 47.12C292.294 47.4613 291.894 47.7973 291.5 48.128C291.105 48.4587 290.748 48.7573 290.428 49.024C290.801 48.896 291.174 48.8107 291.548 48.768C291.932 48.7147 292.3 48.688 292.652 48.688C293.537 48.688 294.321 48.8533 295.004 49.184C295.697 49.504 296.236 49.9467 296.62 50.512C297.014 51.0773 297.212 51.7227 297.212 52.448C297.212 53.3013 296.988 54.048 296.54 54.688C296.092 55.328 295.457 55.8187 294.636 56.16C293.814 56.512 292.838 56.688 291.708 56.688C290.982 56.688 290.358 56.592 289.836 56.4C289.313 56.208 288.908 55.9413 288.62 55.6C288.342 55.2587 288.204 54.864 288.204 54.416C288.204 54.0533 288.305 53.712 288.508 53.392C288.71 53.072 288.998 52.816 289.372 52.624C289.745 52.432 290.177 52.336 290.668 52.336C291.382 52.336 291.974 52.4853 292.444 52.784C292.913 53.072 293.276 53.456 293.532 53.936C293.788 54.4053 293.932 54.912 293.964 55.456L292.812 55.648C292.769 54.9653 292.556 54.4053 292.172 53.968C291.798 53.52 291.292 53.296 290.652 53.296C290.289 53.296 289.985 53.3973 289.74 53.6C289.494 53.8027 289.372 54.0427 289.372 54.32C289.372 54.704 289.569 55.008 289.964 55.232C290.358 55.456 290.87 55.568 291.5 55.568C292.406 55.568 293.19 55.4453 293.852 55.2C294.524 54.9547 295.036 54.5973 295.388 54.128C295.75 53.6587 295.932 53.0933 295.932 52.432C295.932 51.9093 295.777 51.44 295.468 51.024C295.158 50.608 294.732 50.2827 294.188 50.048C293.654 49.8027 293.041 49.68 292.348 49.68C291.676 49.68 291.073 49.7547 290.54 49.904C290.006 50.0427 289.505 50.2453 289.036 50.512C288.577 50.7787 288.118 51.1147 287.66 51.52C287.212 51.9147 286.732 52.368 286.22 52.88L285.308 51.936C285.638 51.6693 286.001 51.3707 286.396 51.04C286.801 50.6987 287.206 50.3627 287.612 50.032C288.017 49.6907 288.39 49.376 288.732 49.088C289.084 48.7893 289.377 48.544 289.612 48.352C289.836 48.1707 290.113 47.9413 290.444 47.664C290.785 47.376 291.137 47.0773 291.5 46.768C291.862 46.4587 292.204 46.1653 292.524 45.888C292.854 45.6107 293.121 45.3867 293.324 45.216C293.153 45.216 292.902 45.2267 292.572 45.248C292.241 45.2587 291.873 45.2747 291.468 45.296C291.062 45.3067 290.657 45.3227 290.252 45.344C289.857 45.3653 289.494 45.3867 289.164 45.408C288.844 45.4187 288.598 45.4293 288.428 45.44C288.257 45.4507 288.081 45.4613 287.9 45.472C287.718 45.4827 287.542 45.504 287.372 45.536L287.324 44.208Z" fill="white"/>
<path d="M339.509 49.1391C339.509 43.8793 334.236 39.6001 327.755 39.6001C321.273 39.6001 316 43.8793 316 49.1391C316 53.8546 320.182 57.8033 325.831 58.5503C326.213 58.633 326.734 58.8026 326.867 59.1299C326.986 59.4273 326.944 59.8923 326.905 60.193C326.905 60.193 326.767 61.0227 326.738 61.199C326.686 61.4964 326.502 62.3613 327.756 61.8325C329.011 61.3036 334.525 57.8463 336.991 55.0082C338.694 53.1396 339.51 51.2446 339.51 49.1391H339.509Z" fill="white"/>
<path d="M335.598 52.1767H332.296C332.172 52.1767 332.071 52.0765 332.071 51.952V51.9486V46.8277V46.8222C332.071 46.6977 332.172 46.5974 332.296 46.5974H335.598C335.721 46.5974 335.823 46.6988 335.823 46.8222V47.6562C335.823 47.7807 335.723 47.881 335.598 47.881H333.354V48.7469H335.598C335.721 48.7469 335.823 48.8483 335.823 48.9717V49.8057C335.823 49.9302 335.723 50.0305 335.598 50.0305H333.354V50.8965H335.598C335.721 50.8965 335.823 50.9978 335.823 51.1212V51.9553C335.823 52.0798 335.723 52.18 335.598 52.18V52.1767Z" fill="#06C755"/>
<path d="M323.383 52.1766C323.506 52.1766 323.608 52.0763 323.608 51.9518V51.1178C323.608 50.9944 323.506 50.893 323.383 50.893H321.139V46.821C321.139 46.6976 321.037 46.5962 320.914 46.5962H320.08C319.955 46.5962 319.855 46.6965 319.855 46.821V51.9474V51.9518C319.855 52.0763 319.955 52.1766 320.08 52.1766H323.382H323.383Z" fill="#06C755"/>
<path d="M325.37 46.5974H324.537C324.413 46.5974 324.312 46.698 324.312 46.8222V51.952C324.312 52.0761 324.413 52.1767 324.537 52.1767H325.37C325.494 52.1767 325.595 52.0761 325.595 51.952V46.8222C325.595 46.698 325.494 46.5974 325.37 46.5974Z" fill="#06C755"/>
<path d="M331.045 46.5974H330.211C330.087 46.5974 329.986 46.6977 329.986 46.8222V49.8685L327.64 46.6988C327.634 46.6911 327.628 46.6833 327.622 46.6756C327.622 46.6756 327.622 46.6756 327.621 46.6745C327.617 46.6701 327.612 46.6646 327.608 46.6602C327.607 46.6591 327.605 46.658 327.603 46.6569C327.599 46.6536 327.596 46.6503 327.591 46.647C327.589 46.6459 327.587 46.6437 327.585 46.6426C327.581 46.6393 327.577 46.6371 327.573 46.6349C327.57 46.6338 327.568 46.6316 327.566 46.6305C327.562 46.6283 327.558 46.6261 327.554 46.6239C327.552 46.6228 327.549 46.6217 327.547 46.6205C327.543 46.6183 327.538 46.6161 327.534 46.615C327.532 46.615 327.53 46.6128 327.526 46.6128C327.522 46.6117 327.517 46.6095 327.513 46.6084C327.511 46.6084 327.508 46.6073 327.505 46.6062C327.501 46.6062 327.497 46.604 327.492 46.6029C327.489 46.6029 327.486 46.6029 327.482 46.6018C327.478 46.6018 327.474 46.6007 327.47 46.6007C327.466 46.6007 327.462 46.6007 327.458 46.6007C327.456 46.6007 327.452 46.6007 327.45 46.6007H326.622C326.498 46.6007 326.397 46.701 326.397 46.8255V51.9553C326.397 52.0787 326.497 52.18 326.622 52.18H327.456C327.58 52.18 327.681 52.0798 327.681 51.9553V48.9089L330.031 52.0831C330.047 52.1062 330.067 52.1249 330.089 52.1393C330.089 52.1393 330.091 52.1404 330.091 52.1415C330.096 52.1448 330.1 52.147 330.105 52.1503C330.108 52.1514 330.11 52.1525 330.112 52.1536C330.115 52.1558 330.12 52.1569 330.123 52.1591C330.126 52.1613 330.131 52.1624 330.134 52.1635C330.136 52.1635 330.139 52.1657 330.141 52.1657C330.146 52.1679 330.151 52.169 330.156 52.1701C330.156 52.1701 330.158 52.1701 330.159 52.1701C330.178 52.1745 330.198 52.1778 330.218 52.1778H331.046C331.17 52.1778 331.271 52.0776 331.271 51.9531V46.8233C331.271 46.6999 331.171 46.5985 331.046 46.5985L331.045 46.5974Z" fill="#06C755"/>
</g>
<defs>
<filter id="filter0_d_79_693" x="0" y="0" width="384" height="100" filterUnits="userSpaceOnUse" color-interpolation-filters="sRGB">
<feFlood flood-opacity="0" result="BackgroundImageFix"/>
<feColorMatrix in="SourceAlpha" type="matrix" values="0 0 0 0 0 0 0 0 0 0 0 0 0 0 0 0 0 0 127 0" result="hardAlpha"/>
<feOffset/>
<feGaussianBlur stdDeviation="10"/>
<feComposite in2="hardAlpha" operator="out"/>
<feColorMatrix type="matrix" values="0 0 0 0 0 0 0 0 0 0 0 0 0 0 0 0 0 0 0.15 0"/>
<feBlend mode="normal" in2="BackgroundImageFix" result="effect1_dropShadow_79_693"/>
<feBlend mode="normal" in="SourceGraphic" in2="effect1_dropShadow_79_693" result="shape"/>
</filter>
</defs>
</svg>
