<svg preserveAspectRatio="none" width="100%" height="100%" overflow="visible" style="display: block;" viewBox="0 0 32.2188 32" fill="none" xmlns="http://www.w3.org/2000/svg">
<g id="Group 64">
<path id="Vector" d="M17.9254 3.50048C16.5795 3.5627 15.2751 3.62954 13.973 3.68254C13.4959 3.70098 13.2424 3.94296 13.2194 4.40389C13.1548 5.77513 13.1041 7.14638 13.0442 8.64208C14.7911 8.08666 16.2522 7.22243 17.8447 6.39047C17.8447 6.66472 17.8447 6.87213 17.8447 7.07955C17.8194 11.6335 17.7825 16.1874 17.7733 20.7413C17.7687 23.0459 17.7963 25.3505 17.8562 27.6529C17.8816 28.6162 18.0314 29.5772 18.1236 30.5382C18.1466 30.7756 18.1927 31.0153 18.1881 31.2527C18.1766 31.7251 17.9369 32.0155 17.4414 31.9994C16.803 31.9786 16.16 31.845 15.5332 31.9095C14.0168 32.0616 12.5925 31.6721 11.1844 31.2411C7.87265 30.2248 5.19699 28.2659 3.13436 25.5026C2.17564 24.219 1.39437 22.8132 0.896577 21.2714C-0.163547 17.9896 -0.407836 14.6387 0.845876 10.8752H4.88356C4.77755 9.36573 4.67845 7.94378 4.57244 6.52183C4.54709 6.19227 4.54709 5.84427 4.43877 5.54006C4.27745 5.08375 4.49639 4.78645 4.77525 4.52603C7.43938 2.01169 10.5667 0.426118 14.2311 0.0642936C15.5655 -0.0670695 16.9229 0.0435521 18.3172 0.0435521C18.1743 1.3157 18.0475 2.42192 17.9254 3.50509V3.50048ZM13.0004 15.0789C12.9958 16.1482 12.9866 18.2846 12.9866 18.2846V18.5012L13.005 19.1742V19.3816C13.005 19.3816 12.9589 21.1492 12.9889 22.0319C13.0258 23.0482 13.1456 24.0623 13.1894 25.0809C13.224 25.8345 13.1617 26.595 13.2055 27.3486C13.2701 28.4572 13.3138 28.4825 14.2126 28.5401C14.2126 28.0815 14.2173 27.6275 14.2126 27.1735C14.2011 26.4014 14.1827 25.6271 14.1689 24.8551C14.1689 24.802 14.1758 24.749 14.1896 24.6983C14.261 24.4494 14.3878 24.2052 14.397 23.9563C14.427 23.2026 14.3025 22.426 14.4477 21.6977C14.5606 21.1262 14.45 20.5846 14.5007 20.0315C14.5445 19.5498 14.4316 19.0589 14.4293 18.5704C14.4201 16.3418 14.4247 14.1132 14.4247 11.8662C13.4782 12.1612 13.0027 12.7673 12.9981 13.6846C12.9981 13.8505 13.0027 14.0164 13.005 14.1824C13.005 14.2239 13.0027 14.263 13.0004 14.3045C13.0004 14.5212 13.0004 14.7401 13.0004 14.9567C13.0004 14.9982 13.0004 15.0374 12.9981 15.0789H13.0004ZM8.28057 13.6846C8.25752 13.7399 8.23217 13.7745 8.23217 13.8067C8.26443 17.4987 8.27826 21.193 8.34971 24.885C8.36353 25.5718 8.36814 26.3738 9.37987 26.6918C9.73248 22.267 9.76935 17.8536 9.71865 13.3873C9.18628 13.4979 8.72766 13.5947 8.28057 13.6869V13.6846ZM4.72685 21.7853C4.79138 21.7807 4.85591 21.7761 4.92044 21.7715V14.1386C4.554 14.1593 4.17605 14.1824 3.75891 14.2077C3.31182 16.8673 3.84879 19.3493 4.72685 21.7876V21.7853ZM8.15151 10.3567C8.61704 10.2 8.91434 10.0686 9.22776 10.0018C9.57807 9.92575 9.70252 9.75521 9.67716 9.39338C9.60803 8.39087 9.57807 7.38606 9.51354 6.38355C9.49049 6.02634 9.41444 5.67142 9.36374 5.31421C9.31304 5.28886 9.26233 5.2612 9.20933 5.23585C8.96043 5.51932 8.53177 5.78205 8.49259 6.09087C8.31975 7.47824 8.25752 8.87945 8.1492 10.3567H8.15151Z" fill="var(--fill-0, #D81B27)"/>
<path id="Vector_2" d="M19.2621 17.2823C19.2321 14.4292 19.2021 11.5737 19.1722 8.72062C19.1722 8.57312 19.1722 8.42563 19.1699 8.27813C19.1307 6.69947 19.0892 5.12311 19.0569 3.54445C19.0454 2.93373 19.1053 2.31609 19.0408 1.71228C18.9855 1.20066 18.7988 0.705163 18.649 0.119791C20.3107 0.338729 21.7879 0.850354 23.2214 1.51408C23.0808 2.56038 22.9241 3.58593 22.8089 4.6161C22.742 5.2176 22.7559 5.83063 22.7052 6.43444C22.6867 6.64185 22.5761 6.84005 22.5231 7.04747C22.5023 7.12813 22.4977 7.24106 22.5392 7.30098C22.7397 7.58444 22.8688 7.84256 22.5623 8.15599C22.5093 8.2113 22.7075 8.4625 22.7028 8.62152C22.6936 9.05709 22.6084 9.49267 22.6084 9.92824C22.6176 13.263 22.6383 16.5955 22.6614 19.9303C22.6729 21.5896 22.6475 23.2512 22.7259 24.9082C22.8112 26.7082 22.9932 28.5011 23.1453 30.4186C21.8409 31.08 20.3176 31.5502 18.7712 31.7829C18.8703 29.6949 18.9855 27.6277 19.0592 25.5581C19.1468 23.136 19.1975 20.7115 19.2621 18.2871C19.2621 17.9506 19.2621 17.6141 19.2644 17.2777L19.2621 17.2823Z" fill="var(--fill-0, #D81B27)"/>
<path id="Vector_3" d="M27.438 12.5162C27.4472 15.5398 27.3965 18.5635 27.4887 21.5849C27.5394 23.2234 27.8413 24.8551 28.0165 26.4891C28.0326 26.6297 28.0096 26.8325 27.9197 26.9154C26.6337 28.1161 25.327 29.2938 23.7483 30.1165C23.7207 30.1304 23.6769 30.1165 23.6976 30.1165C24.2784 20.6768 24.3706 11.2348 23.6884 1.64532C24.7047 2.37127 25.6865 3.07187 26.666 3.77478C26.7397 3.82779 26.8019 3.89923 26.8734 3.95685C27.6454 4.57448 28.0603 5.17368 27.8552 6.35595C27.5118 8.34714 27.5579 10.4052 27.4403 12.4332C27.4288 12.4401 27.4081 12.4494 27.4081 12.454C27.415 12.4747 27.4265 12.4955 27.4357 12.5162H27.438Z" fill="var(--fill-0, #D81B27)"/>
<path id="Vector_4" d="M28.4638 5.66907C29.4801 6.6808 30.1692 7.91147 30.7661 9.19283C31.522 10.8153 31.9553 12.5138 32.1304 14.3114C32.4761 17.8421 31.817 21.1261 29.994 24.1636C29.5723 24.8665 29.033 25.498 28.4407 26.1041C28.4822 25.6178 28.5375 25.1316 28.5652 24.6453C28.6458 23.2579 28.7449 21.8728 28.7818 20.4831C28.844 18.0587 28.8993 15.6342 28.8855 13.2098C28.8763 11.4352 28.7634 9.65836 28.6735 7.88381C28.6366 7.13942 28.5375 6.39964 28.4684 5.65755L28.4592 5.66907H28.4638Z" fill="var(--fill-0, #D81B27)"/>
<path id="Vector_5" d="M28.4742 5.65803C28.4532 5.64867 28.4344 5.64165 28.4134 5.63229C28.4227 5.63229 28.4368 5.62527 28.4415 5.63229C28.4508 5.64165 28.4578 5.65803 28.4649 5.66973L28.4742 5.65803Z" fill="var(--fill-0, #D81B27)"/>
<path id="Vector_6" d="M27.4388 12.5176C27.4295 12.4965 27.4178 12.4778 27.4107 12.4544C27.4107 12.4521 27.4318 12.4404 27.4435 12.4333C27.4669 12.4638 27.4646 12.4895 27.4388 12.5152V12.5176Z" fill="var(--fill-0, #C28C73)"/>
<path id="Vector_7" d="M13.0046 14.1849C13.0163 14.2153 13.0327 14.2434 13.0397 14.2738C13.0397 14.2832 13.014 14.2972 13.0023 14.3089C13.0023 14.2668 13.0046 14.227 13.007 14.1849H13.0046Z" fill="var(--fill-0, #EFCBBA)"/>
<path id="Vector_8" d="M13.0023 14.9589C13.014 14.9893 13.0303 15.0174 13.0374 15.0478C13.0374 15.0571 13.0116 15.0712 12.9999 15.0829C12.9999 15.0408 12.9999 15.001 13.0023 14.9589Z" fill="var(--fill-0, #EFCBBA)"/>
</g>
</svg>
