<svg preserveAspectRatio="none" width="100%" height="100%" overflow="visible" style="display: block;" viewBox="0 0 138.145 23.6636" fill="none" xmlns="http://www.w3.org/2000/svg">
<g id="Group 66">
<path id="Vector" d="M113.306 7.45803C113.324 10.9372 113.262 14.4164 113.405 17.8893C113.442 18.8088 113.89 20.2315 114.536 20.4925C115.493 20.8901 116.804 20.5422 117.934 20.3247C118.177 20.275 118.4 19.4425 118.406 18.9703C118.444 15.5409 118.419 12.1114 118.419 8.68196C118.419 8.14144 118.419 7.60093 118.419 7.06042H121.917V13.5031C121.917 15.7894 121.935 18.0757 121.898 20.362C121.898 20.7534 121.792 21.3747 121.538 21.5052C118.792 22.903 115.859 24.0089 112.846 22.8533C111.355 22.2818 110.268 22.3252 108.895 22.8844C108.012 23.2447 106.944 23.2634 105.968 23.2261C102.893 23.1081 101.47 21.8282 101.358 18.7591C101.216 14.901 101.327 11.0304 101.327 7.07905H104.751C104.751 10.4278 104.751 13.7951 104.751 17.1686C104.751 20.859 106.646 21.909 109.858 20.1694V7.45803C109.932 7.37727 110.013 7.30271 110.087 7.22195C111.088 7.22195 112.082 7.22195 113.082 7.22195C113.157 7.30271 113.231 7.38348 113.312 7.45803H113.306Z" fill="var(--fill-0, #1E201F)"/>
<path id="Vector_2" d="M71.3019 14.5035C71.3019 17.175 71.2708 19.4178 71.3205 21.6606C71.3392 22.4683 71.2832 23.102 70.2768 22.9653C69.3883 22.841 67.8911 23.5306 67.8724 21.9526C67.7979 14.7582 67.8724 7.55755 67.891 0.356917C67.891 0.313427 67.9408 0.276152 67.9594 0.2513H71.2646V14.3295C73.0539 12.2979 74.6381 10.5894 76.1168 8.78769C77.0922 7.60104 78.1484 6.86171 79.7699 7.14129C80.385 7.24691 81.0311 7.15993 82.1494 7.15993C79.4779 9.61398 77.1046 11.7947 74.6754 14.0251C77.2786 17.0942 79.5152 19.7346 81.8698 22.5055C80.503 23.4747 79.0368 22.6484 77.8005 23.0523C75.6881 20.2689 73.6503 17.585 71.3081 14.5035H71.3019Z" fill="var(--fill-0, #1E201F)"/>
<path id="Vector_3" d="M51.6505 22.9651C50.6999 23.0396 50.5384 22.5302 50.5508 21.6914C50.5943 18.5664 50.5819 15.4351 50.5508 12.3101C50.5384 11.1732 50.5757 9.85605 49.3518 9.33417C47.724 8.63834 46.09 9.12294 44.6176 9.96788C44.3753 10.1108 44.338 10.7507 44.338 11.1607C44.3194 14.4846 44.3256 17.8084 44.3256 21.1385C44.3256 21.679 44.3256 22.2195 44.3256 22.8408H40.8278V2.71755C40.8651 1.82291 40.9086 0.934479 40.9459 0.0398363H44.3132V7.35229C45.9409 7.17833 47.432 6.99816 48.9231 6.86769C52.8744 6.52599 53.8188 8.71911 53.9865 11.4962C54.204 15.05 54.0611 18.6223 54.03 22.1885C54.03 22.4618 53.6448 22.729 53.4398 22.9961C52.8434 22.9837 52.2469 22.9775 51.6505 22.9651Z" fill="var(--fill-0, #1E201F)"/>
<path id="Vector_4" d="M126.608 9.82516C126.341 7.62583 126.322 7.49536 128.298 7.22199C130.298 6.94242 132.342 6.80573 134.355 6.88029C136.449 6.95484 137.946 8.69442 138.058 11.2106C138.201 14.4848 138.133 17.7713 138.102 21.0455C138.102 21.3437 137.803 21.8034 137.536 21.9153C134.616 23.1267 131.647 23.8723 128.503 22.7416C126.471 22.0147 125.303 20.3993 125.291 18.2559C125.278 16.5598 126.726 14.5717 128.478 13.9877C130.019 13.4721 131.578 12.9688 133.162 12.6023C134.007 12.4097 134.747 12.3662 134.554 11.2044C134.374 10.142 134.032 9.19766 132.752 9.27843C130.938 9.39647 129.137 9.64499 127.329 9.82516C127.093 9.85001 126.856 9.82516 126.62 9.82516H126.608ZM134.486 14.2425C133.1 14.7519 131.771 15.1122 130.566 15.7149C129.242 16.3797 128.801 17.6906 129.174 19.1257C129.528 20.4801 130.621 20.8156 131.802 20.8466C132.697 20.8715 133.604 20.6727 134.486 20.5795V14.2425Z" fill="var(--fill-0, #1E201F)"/>
<path id="Vector_5" d="M92.8295 12.186C92.8295 11.7759 92.8978 11.2541 92.817 10.7632C92.6555 9.75677 92.0901 9.17278 90.9905 9.25354C89.0396 9.39022 87.0888 9.50826 85.1132 9.63873C84.8709 7.61336 84.8522 7.48289 86.9956 7.18468C88.9402 6.91132 90.9408 6.81812 92.904 6.89889C94.7865 6.97344 96.2776 8.57634 96.3645 10.7508C96.5074 14.3605 96.4018 17.9887 96.4018 21.7785C94.8548 22.3253 93.1587 22.9093 91.4689 23.5181C89.5242 24.214 84.9889 22.288 84.1999 20.4241C83.1064 17.852 84.1067 15.1681 86.8093 14.0436C88.7352 13.2484 90.8103 12.801 92.8295 12.1922V12.186ZM93.0283 14.1057C91.4005 14.7767 89.9405 15.2427 88.6172 15.9634C87.5051 16.5722 87.1013 17.8148 87.5548 18.9331C87.8592 19.6786 88.6917 20.5298 89.4373 20.7099C90.5556 20.9833 91.8043 20.7099 93.0283 20.6602V14.1057Z" fill="var(--fill-0, #1E201F)"/>
<path id="Vector_6" d="M3.63186 22.8345H0.0967805V13.7079C0.0967805 12.7139 0.239675 11.695 0.0657166 10.732C-0.257349 8.92408 0.637294 8.27174 2.18428 7.7188C4.63833 6.84901 7.13588 6.76824 9.66449 6.84901C11.3109 6.90492 12.9697 8.20961 13.0505 10.0548C13.2431 14.2919 13.1126 18.5477 13.1126 22.8594H9.87572C9.87572 21.9026 9.87572 20.9831 9.87572 20.0636C9.87572 17.4791 9.89436 14.9008 9.86951 12.3163C9.84466 9.78145 9.31036 9.25958 6.8563 9.25336C4.69839 9.24922 3.62151 10.293 3.62565 12.3846C3.62565 15.8079 3.62565 19.2373 3.62565 22.8283L3.63186 22.8345Z" fill="var(--fill-0, #1E201F)"/>
<path id="Vector_7" d="M26.3397 22.4494V19.8959C26.9237 20.0574 27.4083 20.2314 27.9054 20.3184C29.0485 20.5172 30.1917 20.7843 31.3473 20.8216C32.3413 20.8527 33.3788 20.3743 33.3354 19.2622C33.3043 18.4421 32.857 17.4108 32.2419 16.9013C31.3597 16.162 30.142 15.8327 29.0858 15.2922C26.8492 14.1366 25.9732 12.5275 26.3025 10.2412C26.5572 8.48921 27.9551 7.14725 30.26 6.78691C31.4529 6.60052 32.7327 6.66265 33.9318 6.86146C36.156 7.2218 36.3113 7.53865 36.0317 9.76283C34.7892 9.5019 33.5528 9.1602 32.2916 9.01109C31.2479 8.88683 30.2724 9.22853 29.9742 10.4028C29.6698 11.5832 30.229 12.4281 31.2541 12.9748C32.1736 13.4657 33.1303 13.8757 34.056 14.3541C36.5101 15.6153 37.5601 17.4543 36.9885 19.7468C36.4293 21.9834 35.193 22.9899 32.2357 23.2011C30.2849 23.344 28.2844 22.7227 26.3522 22.4556L26.3397 22.4494Z" fill="var(--fill-0, #1E201F)"/>
<path id="Vector_8" d="M59.2116 7.03567H62.4671V22.8348H59.2116V7.03567Z" fill="var(--fill-0, #1E201F)"/>
<path id="Vector_9" d="M18.5481 7.04819H21.8906C21.8906 8.45849 21.8906 9.8253 21.8906 11.1983C21.8906 14.516 21.8223 17.8398 21.9217 21.1574C21.9652 22.5802 21.5862 23.2077 20.1138 22.9902C19.6354 22.9219 19.1384 22.9778 18.5544 22.9778V7.04819H18.5481Z" fill="var(--fill-0, #1E201F)"/>
<path id="Vector_10" d="M62.7832 1.95371C62.8143 3.08444 62.0128 3.92937 60.8821 3.96665C59.7948 4.00393 58.8629 3.17142 58.8008 2.10903C58.7387 0.990728 59.6706 0.00910628 60.8013 0.00289349C61.8948 -0.00331931 62.7521 0.841621 62.7832 1.95371Z" fill="var(--fill-0, #1E201F)"/>
<path id="Vector_11" d="M20.0838 3.96023C18.8537 3.94159 18.1516 3.16499 18.2075 1.88515C18.2572 0.773064 19.1581 -0.0532375 20.2702 0.00267765C21.376 0.0585928 22.1961 0.971868 22.1464 2.08396C22.0905 3.23333 21.2766 3.97266 20.09 3.95402L20.0838 3.96023Z" fill="var(--fill-0, #1E201F)"/>
<g id="Vector_12">
</g>
<g id="Vector_13">
</g>
<path id="Vector_14" d="M113.307 7.45823C113.232 7.37746 113.151 7.29669 113.077 7.22214C113.151 7.30291 113.232 7.38367 113.307 7.45823Z" fill="var(--fill-0, #5A372A)"/>
</g>
</svg>
