<svg width="24" height="24" viewBox="0 0 24 24" fill="none" xmlns="http://www.w3.org/2000/svg">
<path d="M23.5093 11.139C23.5093 5.8792 18.2363 1.59998 11.7546 1.59998C5.27301 1.59998 0 5.8792 0 11.139C0 15.8545 4.18227 19.8032 9.83098 20.5502C10.2133 20.6328 10.7344 20.8025 10.8666 21.1297C10.9856 21.4272 10.9438 21.8921 10.9052 22.1929C10.9052 22.1929 10.7675 23.0225 10.7377 23.1988C10.6859 23.4963 10.502 24.3612 11.7558 23.8323C13.0107 23.3035 18.5249 19.8462 20.9907 17.0081C22.694 15.1395 23.5104 13.2445 23.5104 11.139H23.5093Z" fill="white"/>
<path d="M19.598 14.1766H16.296C16.1715 14.1766 16.0713 14.0763 16.0713 13.9518V13.9485V8.82756V8.82205C16.0713 8.69755 16.1715 8.59729 16.296 8.59729H19.598C19.7214 8.59729 19.8228 8.69865 19.8228 8.82205V9.65608C19.8228 9.78058 19.7225 9.88084 19.598 9.88084H17.3537V10.7468H19.598C19.7214 10.7468 19.8228 10.8482 19.8228 10.9716V11.8056C19.8228 11.9301 19.7225 12.0304 19.598 12.0304H17.3537V12.8963H19.598C19.7214 12.8963 19.8228 12.9977 19.8228 13.1211V13.9551C19.8228 14.0796 19.7225 14.1799 19.598 14.1799V14.1766Z" fill="#06C755"/>
<path d="M7.38281 14.1765C7.50621 14.1765 7.60757 14.0763 7.60757 13.9518V13.1177C7.60757 12.9943 7.50621 12.893 7.38281 12.893H5.13853V8.82089C5.13853 8.69749 5.03717 8.59613 4.91377 8.59613H4.07974C3.95524 8.59613 3.85498 8.69639 3.85498 8.82089V13.9474V13.9518C3.85498 14.0763 3.95524 14.1765 4.07974 14.1765H7.38171H7.38281Z" fill="#06C755"/>
<path d="M9.37043 8.59729H8.5375C8.41337 8.59729 8.31274 8.69792 8.31274 8.82205V13.9518C8.31274 14.076 8.41337 14.1766 8.5375 14.1766H9.37043C9.49456 14.1766 9.59519 14.076 9.59519 13.9518V8.82205C9.59519 8.69792 9.49456 8.59729 9.37043 8.59729Z" fill="#06C755"/>
<path d="M15.0455 8.59729H14.2115C14.087 8.59729 13.9867 8.69755 13.9867 8.82205V11.8684L11.64 8.69865C11.6345 8.69094 11.6279 8.68323 11.6224 8.67551C11.6224 8.67551 11.6224 8.67552 11.6213 8.67441C11.6169 8.67001 11.6125 8.6645 11.608 8.66009C11.6069 8.65899 11.6047 8.65789 11.6036 8.65679C11.5992 8.65348 11.5959 8.65017 11.5915 8.64687C11.5893 8.64577 11.5871 8.64356 11.5849 8.64246C11.5816 8.63916 11.5772 8.63695 11.5728 8.63475C11.5706 8.63365 11.5684 8.63144 11.5662 8.63034C11.5618 8.62814 11.5585 8.62594 11.5541 8.62373C11.5519 8.62263 11.5497 8.62153 11.5475 8.62043C11.543 8.61822 11.5386 8.61602 11.5342 8.61492C11.532 8.61492 11.5298 8.61271 11.5265 8.61271C11.5221 8.61161 11.5177 8.60941 11.5133 8.60831C11.5111 8.60831 11.5078 8.60721 11.5056 8.6061C11.5012 8.6061 11.4968 8.6039 11.4924 8.6028C11.4891 8.6028 11.4858 8.6028 11.4824 8.6017C11.478 8.6017 11.4747 8.6006 11.4703 8.6006C11.4659 8.6006 11.4626 8.6006 11.4582 8.6006C11.456 8.6006 11.4527 8.6006 11.4505 8.6006H10.622C10.4986 8.6006 10.3972 8.70086 10.3972 8.82535V13.9551C10.3972 14.0785 10.4975 14.1799 10.622 14.1799H11.456C11.5805 14.1799 11.6808 14.0796 11.6808 13.9551V10.9088L14.0308 14.0829C14.0473 14.1061 14.0672 14.1248 14.0892 14.1391C14.0892 14.1391 14.0914 14.1402 14.0914 14.1413C14.0958 14.1446 14.1002 14.1468 14.1057 14.1501C14.1079 14.1512 14.1101 14.1524 14.1123 14.1535C14.1156 14.1557 14.1201 14.1568 14.1234 14.159C14.1267 14.1612 14.1311 14.1623 14.1344 14.1634C14.1366 14.1634 14.1388 14.1656 14.141 14.1656C14.1465 14.1678 14.1509 14.1689 14.1564 14.17C14.1564 14.17 14.1586 14.17 14.1597 14.17C14.1784 14.1744 14.1983 14.1777 14.2181 14.1777H15.0466C15.17 14.1777 15.2714 14.0774 15.2714 13.9529V8.82315C15.2714 8.69975 15.1711 8.59839 15.0466 8.59839L15.0455 8.59729Z" fill="#06C755"/>
</svg>
