<svg preserveAspectRatio="none" width="100%" height="100%" overflow="visible" style="display: block;" viewBox="0 0 130.6 22.1" fill="none" xmlns="http://www.w3.org/2000/svg">
<g id="Group">
<path id="Vector" d="M50.9 21.7V12C50.9 7.9 49.3 6.40001 45.8 6.40001C42.3 6.40001 43.1 6.80001 41.7 7.40001V0.199997H38.4V21.8H41.7V9.60001C42.8 9.00001 44.1 8.60001 45.2 8.60001C46.9 8.60001 47.7 9.4 47.7 12V21.8H51L50.9 21.7Z" fill="var(--fill-0, #231815)"/>
<g id="Group_2">
<path id="Vector_2" d="M85.5 6.3C84.4 6.3 82.8 6.60001 81 7.10001L80.2 7.40001V9.60001L81.1 9.3C82.6 8.8 83.9 8.60001 85.1 8.60001C87.2 8.60001 87.9 9.4 87.9 11.8C87.7 11.8 87.6 11.8 87.4 11.8C81 12.8 79.1 14.6 79.1 17.4C79.1 20.2 80.5 22 85.2 22C87.5 22 89.1 21.4 90.5 20.7L91.1 20.4V11.8C91.1 8 89.7 6.2 85.5 6.2V6.3ZM85.6 19.8C83.4 19.8 82.5 18.9 82.5 17.3C82.5 15.7 84.3 14.4 87.3 13.7C87.5 13.7 87.7 13.7 87.9 13.6V19.3C87.3 19.6 86.4 19.8 85.6 19.8Z" fill="var(--fill-0, #231815)"/>
<path id="Vector_3" d="M32.1 13.8C31.4 13.5 30.4 13 29.4 12.5C28.3 12 27.9 11.2 27.9 10.4C27.9 9.10001 28.7 8.5 30.1 8.5C31.5 8.5 32.4 8.9 33.4 9.2L34.1 9.5V7.3L33.7 7.10001C32.6 6.60001 31.2 6.3 29.9 6.3C26.2 6.3 24.6 8.4 24.6 10.3C24.6 12.2 25.1 13.5 27.8 14.7C28.6 15.1 29.6 15.5 30.2 15.8C31 16.3 31.5 16.9 31.5 17.8C31.5 19.1 30.7 19.7 28.9 19.7C27.1 19.7 26.2 19.3 25.4 18.9L24.8 18.6V20.8C24.8 20.8 25.3 21 25.3 21.1C26.5 21.7 27.9 22 29.2 22C33.4 22 34.9 20.1 34.9 17.7C34.9 15.3 33.9 14.5 32.2 13.7L32.1 13.8Z" fill="var(--fill-0, #231815)"/>
<path id="Vector_4" d="M32.1 13.8C31.4 13.5 30.4 13 29.4 12.5C28.3 12 27.9 11.2 27.9 10.4C27.9 9.10001 28.7 8.5 30.1 8.5C31.5 8.5 32.4 8.9 33.4 9.2L34.1 9.5V7.3L33.7 7.10001C32.6 6.60001 31.2 6.3 29.9 6.3C26.2 6.3 24.6 8.4 24.6 10.3C24.6 12.2 25.1 13.5 27.8 14.7C28.6 15.1 29.6 15.5 30.2 15.8C31 16.3 31.5 16.9 31.5 17.8C31.5 19.1 30.7 19.7 28.9 19.7C27.1 19.7 26.2 19.3 25.4 18.9L24.8 18.6V20.8C24.8 20.8 25.3 21 25.3 21.1C26.5 21.7 27.9 22 29.2 22C33.4 22 34.9 20.1 34.9 17.7C34.9 15.3 33.9 14.5 32.2 13.7L32.1 13.8Z" fill="var(--fill-0, #231815)"/>
<path id="Vector_5" d="M3.1 9.3C4.4 8.7 5.6 8.5 6.6 8.5C8.3 8.5 9.1 9.30001 9.1 11.9V21.7H12.4V12C12.4 7.9 10.8 6.40001 7.2 6.40001C3.6 6.40001 3.1 6.90001 0.399998 8.10001L0 8.3V21.8H3.3V9.40001L3.1 9.3Z" fill="var(--fill-0, #231815)"/>
<path id="Vector_6" d="M111.9 6.7V19.2C111 19.6 110 19.8 109.2 19.8C108.4 19.8 107.1 19.2 107.1 17.1V6.7H103.8V16.9C103.8 17.8 103.8 18.4 104.1 19.1C103.4 19.5 102.6 19.8 101.3 19.8C100 19.8 99 19.1 99 17.1V6.7H95.7V17C95.7 20.5 96.9 22.1 100.8 22.1C104.7 22.1 103.6 21.5 105 20.9C105.8 21.9 107.4 22.1 108.9 22.1C111.2 22.1 112.6 21.5 114.7 20.6L115.1 20.4V6.7H111.8H111.9Z" fill="var(--fill-0, #231815)"/>
<g id="Group_3">
<path id="Vector_7" d="M18.8 3.8C19.8 3.8 20.7 3.00001 20.7 1.90001C20.7 0.800009 19.9 0 18.8 0C17.7 0 16.9 0.800009 16.9 1.90001C16.9 3.00001 17.7 3.8 18.8 3.8Z" fill="var(--fill-0, #231815)"/>
<path id="Vector_8" d="M20.4 6.7H17.1V21.7H20.4V6.7Z" fill="var(--fill-0, #231815)"/>
</g>
<g id="Group_4">
<path id="Vector_9" d="M57.3 3.8C58.3 3.8 59.2 3.00001 59.2 1.90001C59.2 0.800009 58.4 0 57.3 0C56.2 0 55.4 0.800009 55.4 1.90001C55.4 3.00001 56.2 3.8 57.3 3.8Z" fill="var(--fill-0, #231815)"/>
<path id="Vector_10" d="M59 6.7H55.7V21.7H59V6.7Z" fill="var(--fill-0, #231815)"/>
</g>
<path id="Vector_11" d="M77.6 6.7H73.4L67.3 13.6V0.199997H64V21.7H67.3V13.8L73.3 21.7H77.5L70.7 13.7L77.6 6.7Z" fill="var(--fill-0, #231815)"/>
<path id="Vector_12" d="M125 6.3C123.9 6.3 122.3 6.60001 120.5 7.10001L119.7 7.40001V9.60001L120.6 9.3C122.1 8.8 123.4 8.60001 124.6 8.60001C126.7 8.60001 127.4 9.4 127.4 11.8C127.2 11.8 127.1 11.8 126.9 11.8C120.5 12.8 118.6 14.6 118.6 17.4C118.6 20.2 120 22 124.7 22C127 22 128.6 21.4 130 20.7L130.6 20.4V11.8C130.6 8 129.2 6.2 125 6.2V6.3ZM125 19.8C122.8 19.8 121.9 18.9 121.9 17.3C121.9 15.7 123.7 14.4 126.7 13.7C126.9 13.7 127.1 13.7 127.3 13.6V19.3C126.7 19.6 125.8 19.8 125 19.8Z" fill="var(--fill-0, #231815)"/>
</g>
</g>
</svg>
