<svg preserveAspectRatio="none" width="100%" height="100%" overflow="visible" style="display: block;" viewBox="0 0 82.3 81.8" fill="none" xmlns="http://www.w3.org/2000/svg">
<g id="Group">
<g id="Group_2">
<path id="Vector" d="M72.2 67.9C78.5 60.7 82.3 51.3 82.3 41C82.3 30.7 78.5 21.3 72.3 14.1C73.3 16.7 73.8 27.9 73.8 41C73.8 54.1 73.2 65.5 72.2 67.9Z" fill="var(--fill-0, #D81925)"/>
<path id="Vector_2" d="M47.4 81.5C51.7 80.9 55.7 79.6 59.5 77.7C58.3 76.4 57.7 60.5 57.7 41C57.7 21.5 58.2 5.8 59.4 4.2C55.7 2.4 51.7 1.1 47.5 0.5C48.6 3.1 49.1 20.3 49.1 41C49.1 61.7 48.4 79.5 47.4 81.5Z" fill="var(--fill-0, #D81925)"/>
<path id="Vector_3" d="M69.9 41C69.9 26.3 70.6 13.9 71.8 13.5C68.5 9.8 64.5 6.7 60 4.5C61.2 7.2 61.6 22.6 61.6 41C61.6 59.4 61.1 75.1 60 77.5C64.5 75.2 68.5 72.1 71.8 68.4C70.8 68.1 69.9 55.8 69.9 41Z" fill="var(--fill-0, #D81925)"/>
</g>
<path id="Vector_4" d="M47 81.5C45.6 79.8 45.3 62.4 45.3 41C45.3 19.6 45.5 21.6 45.6 16.3C42.4 18.4 36.7 21.1 33.4 22.3C33.4 18 33.6 11.9 34 9.9C35.9 9.4 38.3 9 40.8 9C43.3 9 44.5 9.1 45.9 9.4C46.1 4.5 46.5 1.5 46.9 0.400002C45 0.100002 43 0 40.9 0C29.3 0 18.5 4.8 11.1 12.9C11.5 14.9 12.2 20.6 12.5 27.7C10.9 27.9 9 28.1 7 28.1C5.3 28.1 3.6 28.1 2.1 27.9C0.800002 31.9 0 36.5 0 40.9C0 63.5 18.3 81.8 41 81.8C63.7 81.8 45.2 81.8 47.1 81.4L47 81.5ZM36.9 30.3C36.9 33.9 37 37.1 37 41C37 54.1 36.6 68.6 36.1 73.2C35.4 73.1 34.6 72.9 34.1 72.7C33.6 68.5 33.2 53.8 33.2 41C33.2 28.2 33.2 35 33.2 31.8C34.4 31.5 35.7 30.9 36.9 30.3ZM21.7 66.6C21.2 62.7 20.8 51.4 20.9 40.9C20.9 38.8 20.9 37 20.9 35C22.2 34.8 23.5 34.6 24.7 34.2C24.7 36.5 24.7 38.5 24.7 40.9C24.7 52.3 24.5 64 23.7 68.3C23 67.9 22.1 67.1 21.6 66.6H21.7ZM21.6 15.2C22.2 14.6 23 14 23.8 13.5C24.2 15.5 24.6 21.1 24.6 25.3C23.5 25.8 22 26.1 21 26.3C21 22.5 21.3 17.6 21.6 15.2ZM9.5 36.4C10.5 36.4 11.6 36.4 12.6 36.2C12.6 37.7 12.6 39.4 12.6 41C12.6 45.9 12.6 52.7 12.3 56.4C10.3 52.6 9.2 46.2 9.2 41C9.2 35.8 9.3 37.5 9.5 36.5V36.4Z" fill="var(--fill-0, #D81925)"/>
</g>
</svg>
