<svg width="293" height="80" viewBox="0 0 293 80" fill="none" xmlns="http://www.w3.org/2000/svg">
<path d="M100.196 47.2089L100.193 39.0564C100.193 35.6344 98.8406 34.3405 95.9282 34.3405C94.8983 34.3405 93.7014 34.6874 92.4649 35.1909V29.1621H89.7166V47.2089H92.4649V37.0263C93.423 36.5374 94.4881 36.2096 95.3627 36.2096C96.7705 36.2096 97.44 36.8814 97.44 39.0388V47.2074H100.196V47.2089Z" fill="#231815"/>
<path d="M129.197 34.3345C128.267 34.3345 126.95 34.5569 125.407 34.9682L124.758 35.1863V37.0554L125.471 36.7919C126.701 36.3441 127.858 36.2109 128.798 36.2109C130.518 36.2109 131.123 36.912 131.123 38.8659V38.8835C130.999 38.9025 130.87 38.9113 130.747 38.9318C125.395 39.7646 123.804 41.2736 123.804 43.6198C123.804 45.6924 124.964 47.4985 128.943 47.4985C130.88 47.4268 132.209 46.9994 133.418 46.4535L133.885 46.2354V39.0196C133.885 35.8274 132.695 34.333 129.195 34.333L129.197 34.3345ZM129.228 45.628C127.393 45.628 126.671 44.9035 126.671 43.5335C126.671 41.7537 128.161 41.1316 130.653 40.5257C130.804 40.4862 130.964 40.4554 131.131 40.4364V45.2386C130.663 45.5314 129.885 45.6265 129.226 45.6265L129.228 45.628Z" fill="#231815"/>
<path d="M84.4807 40.5462C83.902 40.2535 83.0303 39.8422 82.2319 39.4602C81.2826 39.0094 81.0057 38.3902 81.0057 37.7404C81.0057 36.6909 81.6957 36.1904 82.8179 36.1904C83.9987 36.1904 84.7766 36.4831 85.5486 36.8124L86.1083 37.0612V35.1907L85.7479 35.0077C84.8249 34.5511 83.6441 34.3315 82.5483 34.3271C79.4381 34.3271 78.1504 36.0908 78.1504 37.6862C78.1504 39.2567 78.5533 40.3705 80.7947 41.4024C81.4965 41.723 82.3198 42.0815 82.7754 42.326C83.4815 42.708 83.8419 43.27 83.8419 44.0062C83.8419 45.0952 83.1841 45.628 81.7059 45.628C80.4211 45.628 79.4718 45.2972 78.7891 44.9415L78.2793 44.6824V46.5603C78.2793 46.5603 78.6793 46.7594 78.7056 46.7725C79.7341 47.2336 80.868 47.497 81.9403 47.497C85.4402 47.497 86.7001 45.9353 86.7001 43.9111C86.7001 42.1942 85.8387 41.2282 84.4821 40.5447L84.4807 40.5462Z" fill="#231815"/>
<path d="M84.4807 40.5462C83.902 40.2535 83.0303 39.8422 82.2319 39.4602C81.2826 39.0094 81.0057 38.3902 81.0057 37.7404C81.0057 36.6909 81.6957 36.1904 82.8179 36.1904C83.9987 36.1904 84.7766 36.4831 85.5486 36.8124L86.1083 37.0612V35.1907L85.7479 35.0077C84.8249 34.5511 83.6441 34.3315 82.5483 34.3271C79.4381 34.3271 78.1504 36.0908 78.1504 37.6862C78.1504 39.2567 78.5533 40.3705 80.7947 41.4024C81.4965 41.723 82.3198 42.0815 82.7754 42.326C83.4815 42.708 83.8419 43.27 83.8419 44.0062C83.8419 45.0952 83.1841 45.628 81.7059 45.628C80.4211 45.628 79.4718 45.2972 78.7891 44.9415L78.2793 44.6824V46.5603C78.2793 46.5603 78.6793 46.7594 78.7056 46.7725C79.7341 47.2336 80.868 47.497 81.9403 47.497C85.4402 47.497 86.7001 45.9353 86.7001 43.9111C86.7001 42.1942 85.8387 41.2282 84.4821 40.5447L84.4807 40.5462Z" fill="#231815"/>
<path d="M60.1587 36.8505C61.2253 36.3821 62.2698 36.2109 63.0565 36.2109C64.4673 36.2109 65.1397 36.8827 65.1397 39.0401V47.2087H67.8866L67.8837 39.0562C67.8837 35.6342 66.5696 34.3403 63.5019 34.3403C62.1087 34.3403 60.1045 34.7824 57.7796 35.7381L57.4045 35.8889V47.2102H60.1558V36.8519L60.1587 36.8505Z" fill="#231815"/>
<path d="M151.245 34.6318V45.1013C150.48 45.4555 149.675 45.6282 148.963 45.6282C148.022 45.6282 147.208 45.1218 147.208 43.3552V34.6333H144.453L144.456 43.1956C144.456 43.9362 144.481 44.488 144.683 45.034C144.062 45.3589 143.421 45.6282 142.316 45.6282C141.031 45.6282 140.413 45.0471 140.413 43.3552V34.6333H137.659L137.666 43.2527C137.666 46.1639 138.699 47.5002 141.957 47.5002C143.309 47.5002 144.326 47.0377 145.499 46.4581C146.182 47.2675 147.523 47.5002 148.75 47.5002C150.685 47.5002 151.837 46.985 153.623 46.221L154.002 46.0658V34.6333H151.245V34.6318Z" fill="#231815"/>
<path d="M73.3041 32.2489C74.1861 32.2489 74.8878 31.5419 74.8878 30.6667C74.8878 29.7914 74.1861 29.0859 73.3041 29.0859C72.431 29.0859 71.7234 29.7929 71.7234 30.6667C71.7234 31.5405 72.431 32.2489 73.3041 32.2489Z" fill="#231815"/>
<path d="M74.6797 34.6318H71.9299V47.209H74.6797V34.6318Z" fill="#231815"/>
<path d="M105.552 32.2489C106.425 32.2489 107.132 31.5419 107.132 30.6667C107.132 29.7914 106.425 29.0859 105.552 29.0859C104.683 29.0859 103.971 29.7929 103.971 30.6667C103.971 31.5405 104.683 32.2489 105.552 32.2489Z" fill="#231815"/>
<path d="M106.93 34.6318H104.177V47.209H106.93V34.6318Z" fill="#231815"/>
<path d="M122.547 34.6318H119.006L113.896 40.3853V29.1606H111.145V47.2089H113.896V40.5844L118.931 47.2089H122.486L116.76 40.4805L122.547 34.6318Z" fill="#231815"/>
<path d="M162.2 34.3345C161.271 34.3345 159.954 34.5569 158.41 34.9682L157.766 35.1863V37.0554L158.479 36.7919C159.713 36.3441 160.866 36.2109 161.806 36.2109C163.53 36.2109 164.134 36.912 164.134 38.8659V38.8835C164.007 38.9025 163.876 38.9113 163.75 38.9318C158.41 39.7646 156.816 41.2736 156.816 43.6198C156.816 45.6924 157.975 47.4985 161.953 47.4985C163.884 47.4268 165.218 46.9994 166.424 46.4535L166.885 46.2354V39.0196C166.885 35.8274 165.705 34.3345 162.2 34.3345ZM162.238 45.628C160.401 45.628 159.678 44.9035 159.678 43.5335C159.678 41.7537 161.169 41.1316 163.659 40.5257C163.804 40.4862 163.967 40.4554 164.137 40.4364V45.2386C163.676 45.5314 162.893 45.628 162.238 45.628Z" fill="#231815"/>
<path d="M42.9565 50.6336C45.4251 47.8044 46.9223 44.1306 46.9223 40.0792C46.9223 36.0279 45.4339 32.3366 42.98 29.5146C43.358 30.5275 43.5704 34.9375 43.5704 40.0792C43.5704 45.2723 43.314 49.6925 42.9565 50.6336Z" fill="#D71825"/>
<path d="M33.2129 55.9657C34.8918 55.7183 36.4901 55.2075 37.9566 54.4786C37.4878 53.9795 37.2548 47.721 37.2548 40.0793C37.2548 32.5195 37.4482 26.2639 37.939 25.6433C36.4901 24.9291 34.9182 24.4212 33.2583 24.1738C33.7125 25.2057 33.9029 31.9487 33.9029 40.0793C33.9029 48.3884 33.6114 55.1841 33.2144 55.9672L33.2129 55.9657Z" fill="#D71825"/>
<path d="M42.0424 40.0776C42.0424 34.2992 42.3164 29.4369 42.7822 29.2979C41.4828 27.8577 39.924 26.6516 38.1704 25.7559C38.6319 26.8243 38.7842 32.8531 38.7842 40.0762C38.7842 47.4003 38.5938 53.4466 38.147 54.3848C39.9064 53.4846 41.4842 52.2698 42.794 50.812C42.3808 50.6905 42.0424 45.8664 42.0424 40.0776Z" fill="#D71825"/>
<path d="M33.0459 55.9861C32.4746 55.3362 32.3749 48.479 32.3749 40.0777C32.3749 35.9019 32.4511 32.4711 32.4951 30.3986C31.2293 31.2197 28.9923 32.2896 27.6869 32.7682C27.7265 31.0748 27.7968 28.6993 27.9448 27.9148C28.67 27.7172 29.6178 27.5459 30.6228 27.5459C31.1986 27.5459 32.0849 27.606 32.6079 27.6967C32.6782 25.7852 32.8452 24.6157 33.0137 24.1825C32.2548 24.0669 31.4608 24.02 30.6389 24.02C26.0754 24.02 21.865 25.9052 18.9219 29.0901C19.0962 29.8688 19.3496 32.1198 19.4595 34.9096C18.8515 34.9974 18.0883 35.0457 17.303 35.0457C16.654 35.0486 15.986 35.0223 15.3839 34.9696C14.8609 36.5518 14.5547 38.3242 14.5547 40.0806C14.5547 48.9562 21.761 56.1412 30.6404 56.1412C31.4535 56.1412 32.312 56.109 33.0488 55.9875L33.0459 55.9861ZM29.0714 35.8756C29.1036 37.2807 29.1124 38.5365 29.1124 40.0777C29.1124 45.2005 28.9747 50.9043 28.7476 52.7104C28.4619 52.6694 28.1587 52.6124 27.9433 52.5216C27.7514 50.8779 27.5888 45.1156 27.5888 40.0777C27.5888 38.756 27.6005 37.708 27.621 36.4771C28.0766 36.3498 28.5865 36.1083 29.0714 35.8756ZM23.1015 50.149C22.9023 48.6298 22.7645 44.173 22.7865 40.0777C22.7865 39.2639 22.7865 38.5555 22.807 37.7724C23.3095 37.7051 23.8223 37.6012 24.2999 37.4563C24.3043 38.3447 24.3072 39.138 24.3072 40.0762C24.3072 44.5608 24.231 49.1318 23.9424 50.8223C23.6435 50.6511 23.2949 50.3496 23.1 50.1476L23.1015 50.149ZM23.0678 29.9741C23.3081 29.7531 23.604 29.5043 23.9424 29.295C24.083 30.0649 24.2662 32.275 24.2662 33.9362C23.8223 34.1221 23.2451 34.2524 22.8334 34.3256C22.8466 32.8502 22.9491 30.9109 23.0678 29.9741ZM18.3285 38.295C18.7065 38.2891 19.165 38.2642 19.5533 38.2145C19.565 38.7897 19.5723 39.4732 19.5723 40.0762C19.5723 41.979 19.5533 44.6648 19.4346 46.1255C18.6318 44.6443 18.2069 42.1151 18.2069 40.0762C18.2069 39.4864 18.2626 38.6843 18.3285 38.295Z" fill="#D71825"/>
<path d="M218.175 38.9653H221.484L220.979 43.4982H217.668L216.933 49.5738H212.428L213.163 43.4982H197.946L220.979 15.0449L218.175 38.9653ZM213.67 38.9653L214.819 28.9832L206.911 38.9653H213.669H213.67Z" fill="#231815"/>
<path d="M244.218 18.9514L235.484 28.7901C235.897 28.7418 236.31 28.6935 236.725 28.6935C239.346 28.6935 241.92 29.8512 243.528 31.5871C244.769 32.8898 246.011 35.1072 246.011 38.4355C246.011 42.1005 244.725 44.8492 242.702 46.8749C240.449 49.1406 237.782 50.1052 234.518 50.1052C231.669 50.1052 229.324 49.3821 227.255 47.3081C225.094 45.1375 224.221 42.2922 224.221 39.7367C224.221 36.5533 225.646 33.9977 226.244 32.9849C227.394 31.0558 229.095 29.175 230.841 27.2942L240.818 16.2993L244.22 18.9514H244.218ZM230.84 34.6725C229.599 36.0234 228.956 37.8076 228.956 39.7367C228.956 41.6175 229.691 43.0636 230.564 44.0281C231.3 44.8477 232.633 45.764 234.702 45.764C236.632 45.764 238.242 44.896 239.344 43.7866C240.493 42.5806 241.413 40.7964 241.413 38.434C241.413 36.4084 240.723 35.0106 239.665 34.046C238.792 33.2264 237.504 32.6482 235.711 32.6482C233.275 32.6482 231.757 33.7094 230.838 34.6739L230.84 34.6725Z" fill="#231815"/>
<path d="M251.265 47.1149C248.736 43.9812 248.369 39.7367 248.369 37.2294C248.369 32.2135 249.517 24.6904 253.978 20.1092C256.092 17.8903 258.438 16.8774 261.379 16.8774C263.54 16.8774 265.426 17.6005 267.08 19.2398C270.114 22.23 270.527 26.6663 270.527 29.6082C270.527 38.0476 268.366 43.3519 265.102 46.8251C262.803 49.2357 260.689 50.1037 257.701 50.1037C254.804 50.1037 252.919 49.1874 251.263 47.1134L251.265 47.1149ZM257.103 22.9545C254.529 25.7032 253.011 31.7788 253.011 36.843C253.011 39.2054 253.241 42.5337 255.172 44.5594C256.045 45.4756 256.873 45.7171 257.976 45.7171C259.494 45.7171 260.596 45.2356 261.746 44.0295C264.78 40.7993 265.883 34.2875 265.883 30.2376C265.883 28.3085 265.698 24.2571 263.63 22.2812C262.802 21.5099 261.929 21.2201 260.871 21.2201C259.262 21.2201 258.067 21.8948 257.102 22.956L257.103 22.9545Z" fill="#231815"/>
<path d="M271.45 44.9762L270.908 49.575H269.61L270.152 44.9762H269.61L269.756 43.7263H270.3L270.552 41.5864H271.85L271.598 43.7263H272.591L272.444 44.9762H271.451H271.45Z" fill="#231815"/>
<path d="M274.232 39.4453H275.53L274.96 44.2256C275.065 44.0997 275.251 43.9343 275.517 43.7953C275.835 43.6284 276.152 43.5728 276.47 43.5728C277.146 43.5728 277.557 43.8231 277.795 44.0734C278.086 44.3793 278.299 44.8798 278.299 45.4902C278.299 45.698 278.272 45.9483 278.18 46.6991L277.836 49.5752H276.538L276.895 46.5601C276.961 46.0464 276.961 45.8385 276.961 45.7829C276.961 45.5458 276.922 45.2399 276.709 45.0321C276.536 44.8652 276.284 44.7949 276.047 44.7949C275.584 44.7949 275.319 45.0028 275.212 45.114C274.868 45.4609 274.749 46.0581 274.67 46.7533L274.339 49.5737H273.041L274.233 39.4438L274.232 39.4453Z" fill="#231815"/>
<path d="M210.704 59.2383H206.708L205.583 61.8801H204.429L208.748 52.0562L212.954 61.8801H211.801L210.704 59.2383ZM210.296 58.2547L208.721 54.5019L207.117 58.2547H210.296Z" fill="#231815"/>
<path d="M214.587 56.0477H215.599V56.7225C215.783 56.4839 216.303 55.9072 217.274 55.9072C217.963 55.9072 218.595 56.1882 218.948 56.7093C219.244 57.1455 219.285 57.6226 219.285 58.2696V61.8804H218.273V58.2974C218.273 57.9461 218.245 57.5377 218.006 57.2289C217.81 56.9757 217.5 56.8074 217.05 56.8074C216.698 56.8074 216.319 56.9054 216.023 57.2567C215.629 57.7207 215.601 58.4086 215.601 58.8301V61.8789H214.589V56.0463L214.587 56.0477Z" fill="#231815"/>
<path d="M220.917 56.0477H221.93V56.7225C222.113 56.4839 222.633 55.9072 223.604 55.9072C224.294 55.9072 224.926 56.1882 225.279 56.7093C225.575 57.1455 225.616 57.6226 225.616 58.2696V61.8804H224.603V58.2974C224.603 57.9461 224.576 57.5377 224.337 57.2289C224.139 56.9757 223.83 56.8074 223.38 56.8074C223.029 56.8074 222.649 56.9054 222.353 57.2567C221.959 57.7207 221.931 58.4086 221.931 58.8301V61.8789H220.919V56.0463L220.917 56.0477Z" fill="#231815"/>
<path d="M227.755 53.1245C228.149 53.1245 228.473 53.448 228.473 53.8417C228.473 54.2354 228.149 54.5589 227.755 54.5589C227.361 54.5589 227.037 54.2354 227.037 53.8417C227.037 53.448 227.361 53.1245 227.755 53.1245ZM228.26 56.0474V61.88H227.248V56.0474H228.26Z" fill="#231815"/>
<path d="M230.455 56.0474L232.2 59.9816L233.944 56.0474H235.069L232.2 62.2591L229.33 56.0474H230.455Z" fill="#231815"/>
<path d="M241.315 60.3904C241.146 60.7138 240.893 61.0651 240.597 61.333C240.062 61.8101 239.402 62.0502 238.656 62.0502C237.249 62.0502 235.771 61.1646 235.771 58.9999C235.771 57.2567 236.841 55.9087 238.599 55.9087C239.738 55.9087 240.456 56.4707 240.808 56.9772C241.174 57.4967 241.385 58.3969 241.356 59.1697H236.813C236.828 60.3772 237.657 61.1515 238.67 61.1515C239.15 61.1515 239.527 61.011 239.866 60.7299C240.133 60.5045 240.345 60.2103 240.471 59.9279L241.315 60.3918V60.3904ZM240.317 58.3252C240.149 57.4119 239.46 56.8074 238.602 56.8074C237.743 56.8074 237.04 57.4543 236.886 58.3252H240.317Z" fill="#231815"/>
<path d="M242.906 56.0477H243.918V56.68C244.016 56.5249 244.453 55.9072 245.24 55.9072C245.549 55.9072 245.886 56.0199 246.14 56.1458L245.661 57.0591C245.436 56.904 245.225 56.863 245.071 56.863C244.664 56.863 244.41 57.0313 244.255 57.2289C244.087 57.4543 243.918 57.848 243.918 58.8023V61.8804H242.906V56.0477Z" fill="#231815"/>
<path d="M249.615 57.3972C249.475 57.0606 249.179 56.8074 248.799 56.8074C248.435 56.8074 248.096 57.0181 248.096 57.4675C248.096 57.889 248.377 58.0149 249.038 58.2974C249.882 58.6486 250.276 58.9165 250.502 59.196C250.755 59.5049 250.811 59.8152 250.811 60.1372C250.811 61.3593 249.924 62.0487 248.799 62.0487C248.56 62.0487 247.252 62.0209 246.76 60.5587L247.633 60.1928C247.746 60.5016 248.083 61.1485 248.815 61.1485C249.476 61.1485 249.772 60.6568 249.772 60.2206C249.772 59.6732 249.378 59.4902 248.83 59.2517C248.127 58.9428 247.676 58.7174 247.409 58.394C247.183 58.1129 247.142 57.8319 247.142 57.5377C247.142 56.5117 247.86 55.9072 248.845 55.9072C249.154 55.9072 249.984 55.9643 250.447 56.9611L249.618 57.3972H249.615Z" fill="#231815"/>
<path d="M256.636 56.0477H257.648V61.8804H256.636V61.0651C256.299 61.5013 255.664 62.0487 254.639 62.0487C253.162 62.0487 251.797 61.008 251.797 58.9575C251.797 56.9479 253.148 55.9072 254.639 55.9072C255.764 55.9072 256.369 56.5264 256.636 56.8762V56.0477ZM252.837 58.9575C252.837 60.2074 253.54 61.15 254.75 61.15C255.988 61.15 256.691 60.124 256.691 58.9721C256.691 57.4689 255.651 56.8074 254.75 56.8074C253.751 56.8074 252.837 57.5377 252.837 58.9575Z" fill="#231815"/>
<path d="M259.28 56.0477H260.292V56.68C260.39 56.5249 260.827 55.9072 261.614 55.9072C261.923 55.9072 262.261 56.0199 262.515 56.1458L262.036 57.0591C261.81 56.904 261.601 56.863 261.445 56.863C261.038 56.863 260.785 57.0313 260.629 57.2289C260.461 57.4543 260.292 57.848 260.292 58.8023V61.8804H259.28V56.0477Z" fill="#231815"/>
<path d="M266.286 61.3326L263.599 56.0488H264.753L266.82 60.2231L268.719 56.0488H269.844L265.553 65.1132H264.428L266.286 61.3326Z" fill="#231815"/>
<path d="M182.936 16.9404H182.526V63.0204H182.936V16.9404Z" fill="#231815"/>
</svg>
