<svg preserveAspectRatio="none" width="100%" height="100%" overflow="visible" style="display: block;" viewBox="0 0 399.857 600" fill="none" xmlns="http://www.w3.org/2000/svg">
<g id="Group 68" opacity="0.5">
<g id="Vector">
<mask id="path-1-inside-1_0_13" fill="white">
<path d="M178.593 143.45L187.646 122.633H198.703L194.434 118.557L196.244 114.935L200.767 113.125H203.032L208.918 108.602L211.63 99.5494H219.226L221.138 86.1257V80.096L225.214 82.3614V74.8663L227.926 68.7861L230.637 64.2638L233.349 60.6426V57.1729L238.781 47.9683L263.22 35.2941L273.174 30.7718H281.974L290.37 28.9612L299.423 24.4389L303.945 14.4848L310.278 5.43181L322.043 0H330.641L333.808 3.62121L338.33 13.5753L341.951 14.4764L344.663 17.1881L346.473 19.8998L352.806 22.6115C352.806 22.6115 355.518 23.5126 355.518 25.3232C355.518 27.1338 357.329 28.9444 357.329 28.9444L361.851 26.2327L367.283 29.8539L378.146 31.6645L384.479 32.5656L387.191 41.6186V47.1009L395.334 47.0504L399.857 48.861C399.857 48.861 396.235 50.6716 395.334 51.5727C394.433 52.4738 389.002 54.2844 389.002 54.2844L381.759 57.9056L374.517 65.148L368.184 75.1021C368.184 75.1021 368.184 81.435 367.283 82.3445C366.382 83.254 368.184 90.488 367.283 91.3975C366.382 92.307 367.283 97.7304 367.283 97.7304L368.184 103.162L369.085 109.495L370.896 118.548L374.517 123.98C374.517 123.98 375.418 128.502 375.418 129.412C375.418 130.321 374.517 134.844 374.517 134.844L368.184 137.555V141.176L371.249 143.442L367.274 148.419L364.563 152.941L361.851 162.895L359.139 172.849L355.518 180.993L352.806 184.614L347.375 188.235L341.042 192.758C341.042 192.758 340.141 194.568 340.141 196.379C340.141 198.189 341.042 202.712 341.042 202.712V205.423C341.042 208.135 338.33 210.855 338.33 210.855L332.898 213.567L331.088 217.188L333.799 224.43L336.511 229.862L333.799 233.484L330.178 238.006V251.581L329.277 258.824C329.277 258.824 327.466 262.445 327.466 264.255C327.466 266.066 324.755 275.119 324.755 275.119L323.854 282.361L319.331 303.179L316.62 307.701L315.719 312.224V321.277C315.719 323.087 314.817 327.61 314.817 327.61L313.916 330.321L313.015 333.033L311.205 344.798L309.394 351.131L305.773 354.752L303.061 359.274L300.35 365.607L298.539 369.228C298.539 369.228 299.44 374.66 298.539 375.561C297.638 376.462 298.539 380.993 298.539 380.993L295.827 388.235L294.017 390.947L291.305 392.758L289.267 403.065L286.774 409.045C286.774 409.045 285.873 412.666 284.063 414.476C282.252 416.287 279.54 420.809 279.54 420.809L275.018 428.052C275.018 428.052 271.397 431.673 270.496 431.673C269.595 431.673 263.253 433.483 263.253 433.483L262.352 438.915L265.064 444.347L263.253 448.869L259.632 452.491L253.299 457.013L244.246 464.255L237.913 467.877L233.391 474.209L232.49 481.452L229.778 487.785L224.346 503.171L221.18 512.072L215.293 524.889L212.582 531.222L213.483 544.798V558.373C213.483 558.373 215.293 564.706 215.293 566.516C215.293 568.327 216.195 573.759 216.195 573.759L215.293 580.092L211.672 583.713L208.051 586.425L207.15 592.758L208.961 600L203.074 596.53L197.187 593.667L194.476 592.766L189.953 593.667L188.143 598.189L187.242 588.235L182.72 580.993L186.341 575.561L187.242 564.697L180.909 550.221L175.477 532.123L169.144 524.881L159.19 513.116L143.804 503.162L132.941 495.92C132.941 495.92 128.418 490.488 124.797 489.587C121.176 488.686 112.123 476.913 112.123 476.913V465.401L113.934 459.716L107.601 451.573L103.078 435.286V431.614L100.367 427.142C100.367 427.142 101.268 421.011 100.367 419.546C99.4656 418.089 98.5561 411.756 98.5561 411.756L92.2232 405.423L83.1702 400.901C83.1702 400.901 78.6479 398.189 78.6479 397.28V393.406L75.0267 391.848L77.7384 390.037L82.2607 387.326L83.1618 382.803L82.2607 377.372V371.94L86.783 365.607L89.4947 361.986L90.3958 351.122L92.2064 343.88L95.8276 339.357V333.926L94.017 327.593V322.161L89.4947 319.449L92.2064 314.927V306.783L93.1075 296.829L95.8192 288.686L99.4404 285.974L101.251 283.262L99.4404 278.74V266.066C99.4404 264.255 104.872 263.354 104.872 263.354C104.872 263.354 105.773 262.453 107.584 262.453C109.394 262.453 111.205 260.643 111.205 260.643L115.727 259.741L113.917 256.12L117.538 253.409L122.97 244.356L122.069 236.212L124.78 232.591C124.78 232.591 127.492 233.492 128.402 230.78C129.303 228.069 130.212 225.348 130.212 225.348L134.734 223.538L138.356 217.205L136.545 213.584L133.833 210.872L136.545 209.061L140.166 204.539L143.787 202.729L147.409 200.017L150.12 195.495L147.409 192.783L153.741 190.071L155.552 183.738L156.453 181.027L155.552 177.405L158.264 176.504L160.074 171.072L161.885 169.262L167.317 162.929V158.407L171.839 153.884L175.46 150.263L178.627 143.476L178.593 143.45Z"/>
</mask>
<path d="M178.593 143.45L187.646 122.633H198.703L194.434 118.557L196.244 114.935L200.767 113.125H203.032L208.918 108.602L211.63 99.5494H219.226L221.138 86.1257V80.096L225.214 82.3614V74.8663L227.926 68.7861L230.637 64.2638L233.349 60.6426V57.1729L238.781 47.9683L263.22 35.2941L273.174 30.7718H281.974L290.37 28.9612L299.423 24.4389L303.945 14.4848L310.278 5.43181L322.043 0H330.641L333.808 3.62121L338.33 13.5753L341.951 14.4764L344.663 17.1881L346.473 19.8998L352.806 22.6115C352.806 22.6115 355.518 23.5126 355.518 25.3232C355.518 27.1338 357.329 28.9444 357.329 28.9444L361.851 26.2327L367.283 29.8539L378.146 31.6645L384.479 32.5656L387.191 41.6186V47.1009L395.334 47.0504L399.857 48.861C399.857 48.861 396.235 50.6716 395.334 51.5727C394.433 52.4738 389.002 54.2844 389.002 54.2844L381.759 57.9056L374.517 65.148L368.184 75.1021C368.184 75.1021 368.184 81.435 367.283 82.3445C366.382 83.254 368.184 90.488 367.283 91.3975C366.382 92.307 367.283 97.7304 367.283 97.7304L368.184 103.162L369.085 109.495L370.896 118.548L374.517 123.98C374.517 123.98 375.418 128.502 375.418 129.412C375.418 130.321 374.517 134.844 374.517 134.844L368.184 137.555V141.176L371.249 143.442L367.274 148.419L364.563 152.941L361.851 162.895L359.139 172.849L355.518 180.993L352.806 184.614L347.375 188.235L341.042 192.758C341.042 192.758 340.141 194.568 340.141 196.379C340.141 198.189 341.042 202.712 341.042 202.712V205.423C341.042 208.135 338.33 210.855 338.33 210.855L332.898 213.567L331.088 217.188L333.799 224.43L336.511 229.862L333.799 233.484L330.178 238.006V251.581L329.277 258.824C329.277 258.824 327.466 262.445 327.466 264.255C327.466 266.066 324.755 275.119 324.755 275.119L323.854 282.361L319.331 303.179L316.62 307.701L315.719 312.224V321.277C315.719 323.087 314.817 327.61 314.817 327.61L313.916 330.321L313.015 333.033L311.205 344.798L309.394 351.131L305.773 354.752L303.061 359.274L300.35 365.607L298.539 369.228C298.539 369.228 299.44 374.66 298.539 375.561C297.638 376.462 298.539 380.993 298.539 380.993L295.827 388.235L294.017 390.947L291.305 392.758L289.267 403.065L286.774 409.045C286.774 409.045 285.873 412.666 284.063 414.476C282.252 416.287 279.54 420.809 279.54 420.809L275.018 428.052C275.018 428.052 271.397 431.673 270.496 431.673C269.595 431.673 263.253 433.483 263.253 433.483L262.352 438.915L265.064 444.347L263.253 448.869L259.632 452.491L253.299 457.013L244.246 464.255L237.913 467.877L233.391 474.209L232.49 481.452L229.778 487.785L224.346 503.171L221.18 512.072L215.293 524.889L212.582 531.222L213.483 544.798V558.373C213.483 558.373 215.293 564.706 215.293 566.516C215.293 568.327 216.195 573.759 216.195 573.759L215.293 580.092L211.672 583.713L208.051 586.425L207.15 592.758L208.961 600L203.074 596.53L197.187 593.667L194.476 592.766L189.953 593.667L188.143 598.189L187.242 588.235L182.72 580.993L186.341 575.561L187.242 564.697L180.909 550.221L175.477 532.123L169.144 524.881L159.19 513.116L143.804 503.162L132.941 495.92C132.941 495.92 128.418 490.488 124.797 489.587C121.176 488.686 112.123 476.913 112.123 476.913V465.401L113.934 459.716L107.601 451.573L103.078 435.286V431.614L100.367 427.142C100.367 427.142 101.268 421.011 100.367 419.546C99.4656 418.089 98.5561 411.756 98.5561 411.756L92.2232 405.423L83.1702 400.901C83.1702 400.901 78.6479 398.189 78.6479 397.28V393.406L75.0267 391.848L77.7384 390.037L82.2607 387.326L83.1618 382.803L82.2607 377.372V371.94L86.783 365.607L89.4947 361.986L90.3958 351.122L92.2064 343.88L95.8276 339.357V333.926L94.017 327.593V322.161L89.4947 319.449L92.2064 314.927V306.783L93.1075 296.829L95.8192 288.686L99.4404 285.974L101.251 283.262L99.4404 278.74V266.066C99.4404 264.255 104.872 263.354 104.872 263.354C104.872 263.354 105.773 262.453 107.584 262.453C109.394 262.453 111.205 260.643 111.205 260.643L115.727 259.741L113.917 256.12L117.538 253.409L122.97 244.356L122.069 236.212L124.78 232.591C124.78 232.591 127.492 233.492 128.402 230.78C129.303 228.069 130.212 225.348 130.212 225.348L134.734 223.538L138.356 217.205L136.545 213.584L133.833 210.872L136.545 209.061L140.166 204.539L143.787 202.729L147.409 200.017L150.12 195.495L147.409 192.783L153.741 190.071L155.552 183.738L156.453 181.027L155.552 177.405L158.264 176.504L160.074 171.072L161.885 169.262L167.317 162.929V158.407L171.839 153.884L175.46 150.263L178.627 143.476L178.593 143.45Z" stroke="var(--stroke-0, white)" stroke-width="2" stroke-linejoin="round" mask="url(#path-1-inside-1_0_13)"/>
</g>
<path id="Vector_2" d="M315.655 468.534L313.034 470.172V467.092C313.061 467.091 313.09 467.089 313.121 467.087C313.453 467.074 313.9 467.064 314.351 467.058C314.802 467.052 315.253 467.049 315.591 467.047C315.613 467.047 315.634 467.046 315.655 467.046V468.534Z" stroke="var(--stroke-0, white)" stroke-linejoin="round"/>
<path id="Vector_3" d="M326.978 573.15L327.313 577.169C327.316 577.206 327.323 577.242 327.334 577.278L329.189 583.174L325.065 579.741C325.046 579.725 325.024 579.71 325.002 579.697L320.48 576.985C320.422 576.949 320.355 576.927 320.287 576.918L320.285 576.917C320.283 576.917 320.279 576.917 320.274 576.916C320.265 576.915 320.25 576.913 320.231 576.91C320.194 576.905 320.138 576.897 320.067 576.886C319.926 576.864 319.724 576.832 319.485 576.788C319.006 576.701 318.39 576.571 317.821 576.4C317.232 576.222 316.769 576.02 316.536 575.822C316.463 575.76 316.438 575.72 316.431 575.705C316.436 575.689 316.456 575.651 316.513 575.59C317.246 574.802 317.839 573.698 318.242 572.823C318.446 572.381 318.606 571.985 318.716 571.699C318.748 571.614 318.775 571.538 318.799 571.474L322.959 570.168L326.978 573.15Z" stroke="var(--stroke-0, white)" stroke-linejoin="round"/>
<path id="Vector_4" d="M8.35059 302.231V304.948C8.35059 305.223 8.57287 305.446 8.84766 305.448L15.207 305.492L14.0518 307.229L8.03125 307.667C7.81413 307.682 7.6318 307.837 7.58105 308.048L6.63184 312.006L1.75879 317.688L0.623047 315.52L3.87891 312.614C4.08271 312.431 4.10231 312.119 3.92285 311.913L0.5 307.977V305.672L3.20898 308.131C3.32043 308.232 3.47232 308.278 3.62109 308.255C3.76974 308.233 3.90034 308.144 3.97656 308.014L7.37695 302.231H8.35059Z" stroke="var(--stroke-0, white)" stroke-linejoin="round"/>
</g>
</svg>
